<?xml version="1.0" encoding="UTF-8"?>
<svg version="1.1" xmlns="http://www.w3.org/2000/svg" width="1200" height="1200">
<path d="M0 0 C1.41732422 0.33064453 1.41732422 0.33064453 2.86328125 0.66796875 C37.44283711 8.97233477 67.4803557 25.31478549 93 50 C93.49983398 50.47405273 93.99966797 50.94810547 94.51464844 51.43652344 C123.22317857 78.68869187 140.73690147 115.4007095 148 154 C148.24621094 155.26972656 148.49242187 156.53945313 148.74609375 157.84765625 C156.21000133 205.15338774 143.61307107 256.75723178 115.5234375 295.4765625 C111.00511885 301.52697486 106.13982882 307.24224336 101.01953125 312.79296875 C99.26095093 314.71482152 97.59180225 316.67647489 95.9375 318.6875 C92.62823271 322.55129316 88.91104259 325.75819389 85 329 C84.50419434 329.42410156 84.00838867 329.84820313 83.49755859 330.28515625 C46.81273081 361.61397736 -2.76563669 378.36380784 -50.99414062 374.77734375 C-104.2024895 370.17869157 -151.0074913 346.49126015 -185.828125 305.8671875 C-217.94658119 266.39450537 -232.10612618 215.46794843 -227.5390625 165.0234375 C-222.00174419 115.78821611 -197.01616182 69.85711488 -158.72265625 38.41015625 C-135.07182101 19.63772691 -107.47163342 6.50783529 -78 0 C-76.92516357 -0.2477417 -76.92516357 -0.2477417 -75.82861328 -0.50048828 C-52.32326227 -5.6934685 -23.40903242 -5.59862894 0 0 Z " fill="#FC8A40" transform="translate(300,414)"/>
<path d="M0 0 C4.41854291 3.11306432 8.02390999 6.75922996 9.75 11.9375 C10.14024191 17.7911286 9.74705965 21.71681544 6.75 26.9375 C3.71301018 30.12526236 0.95171414 32.53692862 -3.25 33.9375 C-3.58 49.7775 -3.91 65.6175 -4.25 81.9375 C-2.27 82.2675 -0.29 82.5975 1.75 82.9375 C3.76089078 83.57055821 5.76463373 84.22844062 7.75 84.9375 C9.91018358 82.30727647 12.06567179 79.67367253 14.2109375 77.03125 C15.83182509 75.04090453 17.48041609 73.09598503 19.1640625 71.15625 C20.25847656 69.87234375 20.25847656 69.87234375 21.375 68.5625 C22.04789063 67.79164063 22.72078125 67.02078125 23.4140625 66.2265625 C24.99961151 64.03001877 24.99961151 64.03001877 24.4921875 61.54296875 C24.24726563 60.68316406 24.00234375 59.82335937 23.75 58.9375 C22.53947723 48.19411037 22.53947723 48.19411037 25.1015625 43.41796875 C29.46551464 38.23697712 33.76343852 35.32918019 40.5625 34.4375 C45.66858931 34.65311222 49.73041616 36.89907442 53.75 39.9375 C57.76929351 44.35430605 59.06262576 48.95070418 58.96484375 54.8828125 C58.50413091 59.28890259 56.3055691 62.23486849 53.625 65.625 C49.91034227 68.61287687 46.46958992 70.18835874 41.75 70.9375 C40.0545866 70.69604794 38.36576389 70.40331667 36.6875 70.0625 C33.48259621 69.61737447 32.29738856 69.53512856 29.65625 71.4765625 C27.52662585 73.86816422 25.64153428 76.35349652 23.75 78.9375 C22.09126203 80.96484641 20.42462048 82.9857529 18.75 85 C17.41473697 86.64426816 16.08069502 88.28953279 14.75 89.9375 C15.85033774 92.75532144 16.99869151 95.42531796 18.375 98.125 C19.75 100.9375 19.75 100.9375 19.75 102.9375 C20.37189209 102.77386963 20.99378418 102.61023926 21.63452148 102.44165039 C31.03266542 100.02756109 40.50667385 97.99841655 49.99536133 95.97583008 C52.81067278 95.3753897 55.62509975 94.77092887 58.43945312 94.16601562 C67.18669409 92.29204164 75.92664795 90.42461079 84.75 88.9375 C84.770625 87.7825 84.79125 86.6275 84.8125 85.4375 C85.47614015 79.95270935 88.71015706 76.50059129 92.75 72.9375 C97.20977602 70.16252826 101.65294019 70.33964938 106.75 70.9375 C111.57100482 72.2576365 114.82193461 74.51077927 117.75 78.5625 C120.34730598 83.26572975 120.55281737 87.68830948 119.75 92.9375 C117.80059302 98.37531947 114.53382951 102.26720229 109.5625 105.25 C103.77257517 106.66531496 98.65001893 106.93932816 93.3125 104.125 C88.94117647 100.39338235 88.94117647 100.39338235 87.75 98.9375 C87.75 98.2775 87.75 97.6175 87.75 96.9375 C85.41381248 97.44536685 83.07762782 97.95324679 80.74145508 98.46118164 C78.67753706 98.90980208 76.61357095 99.35820128 74.54956055 99.80639648 C69.30014841 100.94660674 64.0514181 102.08969602 58.8046875 103.2421875 C46.47888458 105.94490371 34.13292146 108.50974212 21.75 110.9375 C21.09 114.5675 20.43 118.1975 19.75 121.9375 C20.719375 122.4221875 21.68875 122.906875 22.6875 123.40625 C23.3278418 123.7266626 23.96818359 124.0470752 24.62792969 124.37719727 C26.05488579 125.09018281 27.48263506 125.80158288 28.91113281 126.51147461 C32.7054789 128.39992215 36.48283703 130.31287672 40.234375 132.28515625 C41.30751953 132.84203125 41.30751953 132.84203125 42.40234375 133.41015625 C43.77977591 134.12580536 45.15239766 134.85080571 46.51953125 135.5859375 C50.07698121 137.44967021 50.07698121 137.44967021 54 137.78125 C56.05448264 136.8323806 56.05448264 136.8323806 59 134.875 C62.85083806 132.6334674 66.37106456 132.11175789 70.75 132.9375 C76.91078456 135.03598217 80.58428459 138.13965124 83.828125 143.828125 C85.70098482 148.11348222 85.45976132 152.75450437 84.02734375 157.16015625 C82.03066507 161.48494611 79.83135163 164.32124896 75.75 166.9375 C69.7158316 168.94888947 62.98494967 169.01506502 57.25 166.25 C53.16831909 162.47444516 49.88055499 159.25359668 49.65234375 153.45703125 C49.66974609 152.11705078 49.66974609 152.11705078 49.6875 150.75 C49.69652344 149.84894531 49.70554687 148.94789063 49.71484375 148.01953125 C49.73224609 146.98892578 49.73224609 146.98892578 49.75 145.9375 C48.88648926 145.66945557 48.02297852 145.40141113 47.13330078 145.12524414 C43.78933576 143.95130924 40.77079327 142.54583594 37.6171875 140.93359375 C36.48152344 140.35802734 35.34585938 139.78246094 34.17578125 139.18945312 C32.39393935 138.27892996 30.61209962 137.36840238 28.83056641 136.45727539 C27.09443847 135.57111187 25.35584236 134.68978913 23.6171875 133.80859375 C22.58706543 133.28193115 21.55694336 132.75526855 20.49560547 132.21264648 C17.23103679 130.681555 17.23103679 130.681555 13.75 129.9375 C11.60410577 131.83336384 11.60410577 131.83336384 9.75 133.9375 C9.09 133.9375 8.43 133.9375 7.75 133.9375 C8.17595459 134.78496796 8.60190918 135.63243591 9.04077148 136.50558472 C13.0477333 144.47902544 17.05050543 152.45455686 21.04914856 160.43217278 C23.10519385 164.53381083 25.16272594 168.63468896 27.22363281 172.73388672 C29.21118008 176.68730535 31.19485171 180.64264586 33.17581177 184.59936905 C33.93357641 186.11119312 34.69275259 187.62231052 35.45333862 189.13271713 C36.51556813 191.24273126 37.57282343 193.35516601 38.62890625 195.46826172 C38.94683136 196.09692139 39.26475647 196.72558105 39.59231567 197.37329102 C41.75 201.70939568 41.75 201.70939568 41.75 203.9375 C42.74 203.6075 43.73 203.2775 44.75 202.9375 C50.83969598 202.09671357 54.98594187 202.96773215 60.0234375 206.5 C63.40001582 209.31126883 66.47965904 212.55318135 66.98828125 217.0390625 C67.16918147 223.18967003 66.52774545 227.93516428 62.75 232.9375 C57.43204805 237.17015564 53.04865198 238.370692 46.38671875 238.2734375 C41.98497636 237.71262291 38.94683096 235.97227962 35.75 232.9375 C32.22698977 228.3595771 31.17017713 223.7578994 31.40625 218.04296875 C31.8992338 215.02344295 33.31784458 212.61500797 34.75 209.9375 C34.28812953 206.12785176 32.31550532 202.84256157 30.60717773 199.45654297 C30.28516388 198.81543579 29.96315002 198.17432861 29.63137817 197.51379395 C28.93363056 196.12589433 28.2340364 194.73892183 27.53280449 193.35277939 C26.42417738 191.16107174 25.3205818 188.96689665 24.21827698 186.77200317 C21.87914661 182.11658274 19.53376435 177.46432819 17.1875 172.8125 C14.46541693 167.41547671 11.74588724 162.01719926 9.0330677 156.61551285 C7.94386228 154.450102 6.8498799 152.28714871 5.75572205 150.12423706 C5.09138871 148.80283227 4.42727832 147.48131535 3.76342773 146.15966797 C3.18020248 145.0036911 2.59697723 143.84771423 1.99607849 142.65670776 C0.75 139.9375 0.75 139.9375 0.75 137.9375 C0.09 138.2675 -0.57 138.5975 -1.25 138.9375 C-3.59979978 139.11467897 -5.95645597 139.20519035 -8.3125 139.25 C-9.58222656 139.28738281 -10.85195312 139.32476563 -12.16015625 139.36328125 C-17.00006079 139.1680562 -20.99772812 137.11186645 -25.25 134.9375 C-26.81234375 136.13632812 -26.81234375 136.13632812 -28.40625 137.359375 C-36.48915841 143.55462395 -44.59714501 149.71285109 -52.75390625 155.81054688 C-57.63172458 159.46151999 -62.46630708 163.16369781 -67.25 166.9375 C-66.92 167.9275 -66.59 168.9175 -66.25 169.9375 C-65.75085164 175.1499181 -65.57770854 179.54120235 -67.875 184.3125 C-72.70615055 189.65219271 -76.27035375 192.63714934 -83.5625 193.1875 C-88.54158645 192.84993482 -92.33077411 191.80065862 -95.98828125 188.25 C-100.6084375 182.95721957 -101.61039904 179.76424053 -101.52734375 172.6953125 C-100.99253304 167.37733556 -97.98074402 164.46097461 -94.125 161.125 C-90.33029219 158.23772232 -88.6342062 157.78177744 -83.9375 157.75 C-82.52017578 157.72873047 -82.52017578 157.72873047 -81.07421875 157.70703125 C-78.25 157.9375 -78.25 157.9375 -75.84936523 159.12768555 C-73.27655307 160.24866126 -73.27655307 160.24866126 -71.05615234 158.91796875 C-70.32348145 158.32628906 -69.59081055 157.73460937 -68.8359375 157.125 C-68.00094727 156.46781982 -67.16595703 155.81063965 -66.30566406 155.13354492 C-64.97873535 154.04650269 -64.97873535 154.04650269 -63.625 152.9375 C-61.75403863 151.45261786 -59.88160873 149.96958443 -58.0078125 148.48828125 C-56.58130371 147.35060303 -56.58130371 147.35060303 -55.12597656 146.18994141 C-49.88334982 142.08395886 -44.45650817 138.22569223 -39.02880859 134.36914062 C-38.28195801 133.82837891 -37.53510742 133.28761719 -36.765625 132.73046875 C-36.10852539 132.2614917 -35.45142578 131.79251465 -34.77441406 131.30932617 C-32.96631707 129.90920402 -32.96631707 129.90920402 -32.25 126.9375 C-32.889375 125.885625 -33.52875 124.83375 -34.1875 123.75 C-37.61719589 117.44645548 -36.73538248 109.89199657 -36.25 102.9375 C-35.92 102.2775 -35.59 101.6175 -35.25 100.9375 C-36.42949219 100.57011719 -37.60898438 100.20273437 -38.82421875 99.82421875 C-45.03148394 97.75351482 -51.02261242 95.17029267 -57.03952026 92.61044312 C-60.46846412 91.15199493 -63.90210222 89.70469894 -67.3359375 88.2578125 C-68.0134758 87.97215927 -68.6910141 87.68650604 -69.38908386 87.39219666 C-77.96075485 83.78592296 -86.59696393 80.34315391 -95.25 76.9375 C-95.5284375 77.56140625 -95.806875 78.1853125 -96.09375 78.828125 C-97.87843121 82.08396235 -99.77943698 82.69801321 -103.25 83.9375 C-109.51728497 84.70155122 -114.71840866 84.19137726 -120.25 80.9375 C-124.21325412 77.26248255 -125.95278585 73.89015207 -126.48828125 68.5703125 C-126.65953263 62.78381863 -126.23582953 59.44778079 -122.25 54.9375 C-117.36748032 50.24620172 -113.3854611 48.51321543 -106.6640625 48.58984375 C-101.38649117 49.34988234 -97.68953308 52.61161427 -93.875 56.125 C-92.25 58.9375 -92.25 58.9375 -92.14599609 61.17333984 C-91.99985403 64.19923754 -91.59964633 66.20950827 -90.25 68.9375 C-85.94705648 71.9552776 -81.15483253 73.60094528 -76.25 75.375 C-74.85158715 75.9121524 -73.45470157 76.4532968 -72.05932617 76.99829102 C-69.91943803 77.83216751 -67.77854331 78.66171575 -65.63090515 79.47544861 C-60.87389644 81.27857323 -56.19935778 83.21538184 -51.55078125 85.28125 C-50.36935547 85.80275635 -49.18792969 86.3242627 -47.97070312 86.86157227 C-45.73540926 87.85416443 -43.50349109 88.85440131 -41.27539062 89.86303711 C-40.27314453 90.2988208 -39.27089844 90.73460449 -38.23828125 91.18359375 C-37.36727783 91.57216553 -36.49627441 91.9607373 -35.59887695 92.36108398 C-33.24868126 93.16856717 -33.24868126 93.16856717 -31.04296875 92.13476562 C-29.17064158 90.88450794 -27.57903704 89.53967555 -25.9375 88 C-21.86665923 84.41941102 -17.82993816 81.9375 -12.25 81.9375 C-12.19015614 75.19246356 -12.19246205 68.44948984 -12.23779297 61.7043457 C-12.24589933 59.41040638 -12.23982568 57.11637103 -12.21923828 54.82250977 C-12.192088 51.52232111 -12.21608547 48.22583799 -12.25 44.92578125 C-12.2305835 43.90164627 -12.21116699 42.87751129 -12.19116211 41.82234192 C-12.24867237 38.97706071 -12.37196154 36.64640564 -13.25 33.9375 C-15.15750229 32.1367456 -16.9110218 31.09333509 -19.29101562 30.00505066 C-22.24250704 28.39663221 -23.34807223 26.20705671 -24.62109375 23.17578125 C-26.02168213 18.19107849 -26.26103894 13.54114894 -24.3671875 8.6640625 C-19.00921965 -0.88092658 -10.26240345 -3.35501651 0 0 Z " fill="#FAF6EF" transform="translate(264.25,481.0625)"/>
<path d="M0 0 C1.65212746 -0.01902626 1.65212746 -0.01902626 3.33763123 -0.03843689 C4.51793411 -0.03550125 5.698237 -0.03256561 6.91430664 -0.02954102 C8.74681725 -0.03740379 8.74681725 -0.03740379 10.61634827 -0.04542542 C13.19767497 -0.05184352 15.77903093 -0.0505114 18.36035156 -0.04199219 C22.30660167 -0.03348577 26.25140274 -0.06224414 30.19750977 -0.09399414 C32.70727496 -0.09560635 35.21704271 -0.09502825 37.72680664 -0.09204102 C38.9050853 -0.10327499 40.08336395 -0.11450897 41.29734802 -0.12608337 C47.60484397 -0.07251476 51.64389551 0.06293176 56.38696289 4.40405273 C59.96914493 9.34499347 60.51289252 13.45411334 60.50048828 19.45776367 C60.50037498 21.28920929 60.50037498 21.28920929 60.5002594 23.15765381 C60.49509811 24.4713092 60.48993683 25.7849646 60.48461914 27.13842773 C60.4827531 28.50034534 60.48133007 29.86226361 60.48033142 31.22418213 C60.47652092 34.80147163 60.46670321 38.37872026 60.45562744 41.95599365 C60.44538174 45.60924731 60.44082704 49.26250759 60.43579102 52.91577148 C60.42507958 60.07855265 60.40749471 67.24129175 60.38696289 74.40405273 C55.43696289 74.40405273 50.48696289 74.40405273 45.38696289 74.40405273 C45.38696289 66.15405273 45.38696289 57.90405273 45.38696289 49.40405273 C30.20696289 49.40405273 15.02696289 49.40405273 -0.61303711 49.40405273 C-0.61303711 57.65405273 -0.61303711 65.90405273 -0.61303711 74.40405273 C-5.23303711 74.40405273 -9.85303711 74.40405273 -14.61303711 74.40405273 C-14.70353799 66.03272139 -14.77686743 57.66177269 -14.8202858 49.29008293 C-14.84112831 45.40243171 -14.86938392 41.51513358 -14.91479492 37.62768555 C-14.9583733 33.87347079 -14.9821993 30.11959488 -14.99254608 26.36514664 C-14.99991609 24.93543288 -15.01430824 23.5057369 -15.03595734 22.07616806 C-15.06514471 20.06829792 -15.06667231 18.06008417 -15.06713867 16.05200195 C-15.07602112 14.9106076 -15.08490356 13.76921326 -15.09405518 12.5932312 C-14.34432378 7.62246732 -12.16257053 4.59872681 -8.21385193 1.55430603 C-5.27178435 0.25312806 -3.20922679 0.0179565 0 0 Z M-0.61303711 14.40405273 C-0.61303711 21.33405273 -0.61303711 28.26405273 -0.61303711 35.40405273 C14.56696289 35.40405273 29.74696289 35.40405273 45.38696289 35.40405273 C45.38696289 28.47405273 45.38696289 21.54405273 45.38696289 14.40405273 C30.20696289 14.40405273 15.02696289 14.40405273 -0.61303711 14.40405273 Z " fill="#000000" transform="translate(774.613037109375,562.595947265625)"/>
<path d="M0 0 C22.77 0 45.54 0 69 0 C69 4.62 69 9.24 69 14 C51.18 14 33.36 14 15 14 C15 19.28 15 24.56 15 30 C29.52 30 44.04 30 59 30 C59 34.62 59 39.24 59 44 C44.48 44 29.96 44 15 44 C15 49.28 15 54.56 15 60 C32.82 60 50.64 60 69 60 C69 64.62 69 69.24 69 74 C46.23 74 23.46 74 0 74 C0 49.58 0 25.16 0 0 Z " fill="#000000" transform="translate(513,563)"/>
<path d="M0 0 C17 0 17 0 21.1875 2.89453125 C22.65844727 4.77368164 22.65844727 4.77368164 24 6.8125 C24.51941162 7.49884521 25.03882324 8.18519043 25.57397461 8.89233398 C26.61221242 10.26846079 27.62989067 11.66038504 28.62451172 13.06835938 C30.47934176 15.67315442 32.51098412 18.11095687 34.5625 20.5625 C35.26503906 21.43003906 35.96757813 22.29757812 36.69140625 23.19140625 C39.86568909 27.05318183 43.12603815 30.83859063 46.40063477 34.61547852 C51.04688971 39.99446466 55.49189595 45.49009505 60 51 C60.33 34.17 60.66 17.34 61 0 C65.62 0 70.24 0 75 0 C75 24.42 75 48.84 75 74 C59 74 59 74 54.0625 69.6875 C52.67260715 67.81770075 51.31847013 65.92083001 50 64 C48.57693827 62.23823907 47.13910894 60.48831462 45.6875 58.75 C44.94886719 57.83734375 44.21023438 56.9246875 43.44921875 55.984375 C40.68189123 52.61238421 37.84847032 49.30340006 35 46 C28.50467826 38.46073212 22.21689855 30.77112318 16 23 C15.67 39.83 15.34 56.66 15 74 C10.05 74 5.1 74 0 74 C0 49.58 0 25.16 0 0 Z " fill="#000000" transform="translate(592,563)"/>
<path d="M0 0 C24.75 0 49.5 0 75 0 C75 16 75 16 72.10546875 20.08984375 C70.22631836 21.57055664 70.22631836 21.57055664 68.1875 22.9375 C67.50115479 23.46142334 66.81480957 23.98534668 66.10766602 24.52514648 C64.73072468 25.57299739 63.33880153 26.6014937 61.93164062 27.60839844 C59.33570625 29.47857361 56.89230441 31.51192985 54.4375 33.5625 C53.56996094 34.26503906 52.70242188 34.96757813 51.80859375 35.69140625 C47.94681817 38.86568909 44.16140937 42.12603815 40.38452148 45.40063477 C35.00553534 50.04688971 29.50990495 54.49189595 24 59 C40.83 59.33 57.66 59.66 75 60 C75 64.62 75 69.24 75 74 C50.25 74 25.5 74 0 74 C0 59 0 59 4.3125 54.125 C6.18323607 52.7160445 8.08005151 51.34112149 10 50 C11.76047772 48.57535111 13.51041435 47.13758552 15.25 45.6875 C16.62285156 44.57568359 16.62285156 44.57568359 18.0234375 43.44140625 C21.34784343 40.71469535 24.61598543 37.92920577 27.875 35.125 C32.61370923 31.04905645 37.3580895 26.98046063 42.125 22.9375 C42.65722168 22.48455566 43.18944336 22.03161133 43.73779297 21.56494141 C46.43689266 19.27855339 49.16634078 17.12524441 52 15 C34.84 14.67 17.68 14.34 0 14 C0 9.38 0 4.76 0 0 Z " fill="#000000" transform="translate(845,563)"/>
<path d="M0 0 C22.77 0 45.54 0 69 0 C69 4.62 69 9.24 69 14 C51.18 14 33.36 14 15 14 C15 19.28 15 24.56 15 30 C29.52 30 44.04 30 59 30 C59 34.62 59 39.24 59 44 C44.48 44 29.96 44 15 44 C15 53.9 15 63.8 15 74 C10.05 74 5.1 74 0 74 C0 49.58 0 25.16 0 0 Z " fill="#000000" transform="translate(954,563)"/>
<path d="M0 0 C5.98855656 -0.7632474 12.07404896 -1.4894243 18 0 C21.9257544 3.09766558 24.22780822 6.78952188 26.74023438 11.02246094 C29.05239474 14.65201501 31.87616808 17.88431897 34.625 21.1875 C40 27.69992459 40 27.69992459 40 30 C43.79060856 26.35937954 47.04576346 22.5341186 50.25 18.375 C50.9759436 17.46500244 50.9759436 17.46500244 51.71655273 16.53662109 C54.02261027 13.63629713 56.12551604 10.79747881 58.08203125 7.640625 C62.788765 0.47376415 62.788765 0.47376415 67.14453125 -0.45947266 C72.47565349 -0.93638848 77.68977624 -0.56711128 83 0 C79.21722927 5.97112737 75.06504086 11.5952721 70.75 17.1875 C64.97875471 24.66795031 59.44228283 32.27732401 54 40 C53.32578003 40.72376831 53.32578003 40.72376831 52.63793945 41.4621582 C47.64829459 47.16931488 48.2217729 53.67545296 48.1875 60.9375 C48.16236328 62.19369141 48.13722656 63.44988281 48.11132812 64.74414062 C48.05267884 67.8290928 48.02342279 70.91457928 48 74 C43.38 74 38.76 74 34 74 C34.1134375 72.22238281 34.226875 70.44476562 34.34375 68.61328125 C34.94787099 50.28529761 31.3281482 40.61869844 18.99707031 27.22900391 C16.19867768 24.10561458 13.80932555 20.76428948 11.4375 17.3125 C10.6687029 16.22083678 9.89920483 15.12966677 9.12890625 14.0390625 C8.42636719 13.03617188 7.72382812 12.03328125 7 11 C6.28714844 9.99710938 5.57429688 8.99421875 4.83984375 7.9609375 C0 1.12934891 0 1.12934891 0 0 Z " fill="#000000" transform="translate(1025,563)"/>
<path d="M0 0 C4.62 0 9.24 0 14 0 C14 19.8 14 39.6 14 60 C34.13 60 54.26 60 75 60 C75 64.62 75 69.24 75 74 C50.25 74 25.5 74 0 74 C0 49.58 0 25.16 0 0 Z " fill="#000000" transform="translate(679,563)"/>
<path d="M0 0 C4.95 0 9.9 0 15 0 C15 24.42 15 48.84 15 74 C10.05 74 5.1 74 0 74 C0 49.58 0 25.16 0 0 Z " fill="#000000" transform="translate(931,563)"/>
</svg>
