<?xml version="1.0" encoding="utf-8" ?>
<svg xmlns="http://www.w3.org/2000/svg" xmlns:xlink="http://www.w3.org/1999/xlink" width="537" height="537">
	<path fill="#0D1534" transform="scale(0.5246 0.5246)" d="M341.385 320.706C358.65 320.681 374.561 324.823 388.229 335.758C402.015 346.789 408.613 362.08 410.499 379.371C412.596 398.592 407.788 417.266 395.451 432.331C382.005 448.749 363.539 455.462 343.031 457.608C343.088 457.782 343.143 457.958 343.202 458.132C355.356 493.927 383.137 523.457 414.77 543.231C422.357 547.973 430.29 551.947 438.293 555.934C437.338 535.272 441.343 516.911 454.52 500.542Q455.693 499.075 456.936 497.667Q458.18 496.26 459.491 494.915Q460.803 493.571 462.179 492.293Q463.555 491.015 464.993 489.806Q466.431 488.597 467.926 487.461Q469.422 486.325 470.971 485.264Q472.521 484.203 474.121 483.219Q475.722 482.236 477.368 481.333Q479.015 480.429 480.705 479.608Q482.394 478.788 484.122 478.051Q485.849 477.315 487.612 476.664Q489.373 476.014 491.165 475.451Q492.957 474.888 494.775 474.415Q496.592 473.941 498.431 473.558Q500.27 473.175 502.125 472.882Q503.981 472.59 505.848 472.39Q507.68 472.202 509.519 472.105Q511.359 472.007 513.2 472.001Q515.042 471.995 516.882 472.08Q518.722 472.165 520.555 472.341Q522.389 472.517 524.211 472.783Q526.033 473.049 527.841 473.405Q529.648 473.761 531.435 474.206Q533.222 474.651 534.985 475.184Q536.748 475.717 538.483 476.336Q540.217 476.956 541.919 477.66Q543.621 478.365 545.285 479.152Q546.95 479.94 548.574 480.809Q550.198 481.678 551.777 482.626Q553.356 483.575 554.886 484.6Q556.416 485.625 557.893 486.725Q559.371 487.825 560.792 488.996C576.316 501.78 585.285 521.051 587.302 540.874C588.302 557.862 585.254 574.381 576.224 589.003C566.25 605.152 549.291 617.849 530.696 622.031C510.924 626.478 489.755 621.715 472.812 610.963C454.376 599.265 443.771 581.382 439.108 560.334C429.938 556.66 420.881 551.311 412.552 546.014C385.487 528.8 362.72 505.718 347.627 477.286C344.422 471.249 340.843 464.391 339.349 457.686C323.073 455.856 308.477 450.995 295.812 440.3Q294.541 439.232 293.325 438.101Q292.11 436.971 290.952 435.781Q289.794 434.592 288.696 433.346Q287.599 432.1 286.565 430.801Q285.532 429.502 284.564 428.153Q283.596 426.804 282.697 425.408Q281.798 424.013 280.969 422.574Q280.141 421.136 279.385 419.657Q278.629 418.179 277.948 416.665Q277.267 415.151 276.662 413.605Q276.057 412.059 275.53 410.485Q275.003 408.91 274.556 407.312Q274.108 405.713 273.74 404.094Q273.373 402.475 273.086 400.84Q272.8 399.205 272.596 397.557Q272.391 395.91 272.269 394.254Q272.127 392.594 272.069 390.928Q272.011 389.263 272.037 387.597Q272.063 385.93 272.172 384.268Q272.281 382.605 272.474 380.95Q272.667 379.294 272.942 377.651Q273.218 376.007 273.575 374.38Q273.933 372.752 274.372 371.145Q274.811 369.537 275.33 367.954Q275.849 366.37 276.447 364.815Q277.045 363.259 277.72 361.736Q278.396 360.212 279.146 358.725Q279.897 357.237 280.722 355.789Q281.547 354.341 282.443 352.936Q283.339 351.531 284.305 350.173Q285.271 348.815 286.303 347.507Q287.336 346.199 288.433 344.945C302.347 328.904 320.597 322.102 341.385 320.706Z"/>
	<path fill="#FAF9F9" transform="scale(0.5246 0.5246)" d="M507.447 476.195Q508.108 476.124 508.771 476.063C526.346 474.455 545.123 480.777 558.546 492.125Q559.873 493.266 561.143 494.471Q562.413 495.675 563.623 496.94Q564.833 498.204 565.981 499.526Q567.129 500.847 568.211 502.223Q569.293 503.599 570.307 505.025Q571.321 506.452 572.265 507.926Q573.209 509.399 574.081 510.917Q574.952 512.435 575.749 513.994Q576.546 515.552 577.267 517.147Q577.987 518.742 578.63 520.37Q579.272 521.999 579.835 523.656Q580.398 525.313 580.879 526.996Q581.361 528.679 581.761 530.383Q582.161 532.087 582.478 533.808Q582.794 535.53 583.027 537.264Q583.26 538.999 583.409 540.743C585.039 560.482 580.072 579.803 567.07 595.018C554.143 610.145 537.844 618.295 518.123 619.865C500.436 620.84 483.256 614.702 469.416 603.829C454.161 591.845 444.736 574.859 442.432 555.61Q442.218 553.893 442.09 552.168Q441.962 550.443 441.92 548.713Q441.878 546.984 441.922 545.255Q441.966 543.525 442.096 541.8Q442.225 540.075 442.441 538.359Q442.656 536.642 442.957 534.938Q443.257 533.235 443.642 531.548Q444.027 529.861 444.495 528.196Q444.963 526.531 445.513 524.89Q446.064 523.25 446.695 521.64Q447.326 520.029 448.036 518.452Q448.747 516.874 449.535 515.334Q450.323 513.794 451.186 512.295Q452.05 510.796 452.987 509.342Q453.924 507.888 454.932 506.482Q455.94 505.076 457.017 503.722C469.584 487.823 487.429 478.523 507.447 476.195Z"/>
	<path fill="#0D1534" transform="scale(0.5246 0.5246)" d="M501.297 498.087C502.972 498.08 504.816 498.323 506.395 498.896C509.216 499.92 511.518 501.985 512.679 504.767Q512.889 505.281 513.047 505.813Q513.205 506.345 513.31 506.891Q513.414 507.436 513.464 507.989Q513.514 508.542 513.509 509.097Q513.504 509.652 513.444 510.204Q513.384 510.756 513.27 511.299Q513.155 511.843 512.987 512.372Q512.819 512.901 512.6 513.411Q512.39 513.912 512.129 514.389Q511.868 514.866 511.56 515.314Q511.251 515.761 510.898 516.174Q510.544 516.587 510.15 516.961Q509.756 517.336 509.325 517.667Q508.894 517.998 508.431 518.283Q507.968 518.568 507.478 518.804Q506.989 519.039 506.477 519.223C502.12 520.743 498.341 519.341 494.414 517.46L481.433 533.476C484.178 539.048 484.471 544.097 483.324 550.089C489.771 552.872 496.567 555.078 503.166 557.492C505.751 554.378 508.686 551.389 512.497 549.825C517.883 547.614 522.614 549.236 527.604 551.475C531.483 543.451 534.762 534.759 537.957 526.435C536.416 524.281 534.943 522.215 534.353 519.574C533.762 516.927 534.121 514.259 535.663 511.997C537.431 509.402 540.375 507.733 543.434 507.196C546.51 506.655 549.858 507.236 552.367 509.163C554.501 510.803 555.589 513.182 555.848 515.824C556.15 518.902 555.359 521.947 553.316 524.308C550.384 527.694 545.94 528.235 541.738 528.551Q536.559 541.506 531.147 554.365C533.279 557.605 534.578 561.079 535.802 564.734C539.244 565.745 542.645 566.993 546.047 568.137C547.683 566.833 549.348 565.421 551.226 564.481C554.642 562.77 558.872 562.174 562.518 563.486C565.028 564.389 567.116 566.036 568.24 568.494C570.046 572.44 569.061 576.125 567.747 579.999C565.539 583.13 562.459 586.068 558.506 586.62C555.61 587.025 552.774 586.052 550.566 584.171C546.674 580.855 546.012 576.691 545.488 571.925C542.072 571.265 538.761 570.13 535.443 569.101C532.671 574.47 529.804 579.353 523.81 581.661C518.677 583.638 513.884 582.503 509.078 580.318L503.955 587.515C505.968 589.778 507.676 592.153 508.313 595.172C508.884 597.872 508.387 600.523 506.803 602.796C505.081 605.268 502.284 607 499.323 607.518Q498.737 607.618 498.143 607.656Q497.55 607.694 496.955 607.67Q496.361 607.646 495.773 607.561Q495.184 607.475 494.608 607.328Q494.031 607.182 493.473 606.976Q492.915 606.771 492.382 606.508Q491.848 606.245 491.345 605.928Q490.842 605.612 490.374 605.244C488.151 603.474 486.995 600.927 486.687 598.143C486.351 595.108 487.119 592.131 489.176 589.83C492.365 586.262 496.615 586.104 501.058 585.981C502.364 583.151 503.678 580.553 505.433 577.972C502.215 572.429 501.376 567.656 501.525 561.358C494.972 558.678 488.305 556.092 481.547 553.981Q480.861 554.5 480.158 554.994C475.886 558.027 470.763 560.537 465.385 559.461C461.656 558.715 458.517 556.186 456.567 552.971Q456.147 552.274 455.799 551.539Q455.451 550.804 455.178 550.037Q454.905 549.271 454.71 548.481Q454.515 547.692 454.399 546.886Q454.284 546.081 454.25 545.268Q454.216 544.456 454.263 543.643Q454.31 542.831 454.438 542.028Q454.566 541.225 454.774 540.438C455.827 536.391 458.395 532.707 462.153 530.759C467.328 528.075 472.835 529.238 478.087 530.907C482.694 525.445 487.106 519.79 491.603 514.235C491.238 510.488 491.029 506.842 493.021 503.453C494.877 500.295 497.913 499.008 501.297 498.087Z"/>
	<path fill="#FAC272" transform="scale(0.5246 0.5246)" d="M517.472 552.538C519.381 552.588 521.179 552.861 522.973 553.546C526.238 554.792 528.781 557.12 530.045 560.406Q530.276 561.021 530.447 561.656Q530.617 562.291 530.724 562.939Q530.832 563.587 530.875 564.243Q530.919 564.898 530.898 565.555Q530.878 566.212 530.793 566.864Q530.708 567.515 530.561 568.156Q530.413 568.796 530.203 569.419Q529.993 570.042 529.724 570.641C527.714 575.079 524.465 576.998 520.132 578.653C517.41 578.644 514.947 578.465 512.468 577.211C509.38 575.65 507.019 572.97 505.998 569.65Q505.811 569.041 505.686 568.416Q505.56 567.791 505.498 567.157Q505.435 566.522 505.436 565.885Q505.437 565.248 505.501 564.614Q505.565 563.98 505.692 563.355Q505.819 562.73 506.007 562.121Q506.196 561.513 506.444 560.926Q506.692 560.339 506.997 559.779C509.303 555.549 513.076 553.814 517.472 552.538Z"/>
	<path fill="#5D8AA5" transform="scale(0.5246 0.5246)" d="M467.319 533.031C469.054 532.99 470.921 532.902 472.607 533.363C475.441 534.139 477.913 536.027 479.261 538.649C480.602 541.255 480.719 544.474 479.711 547.213C478.073 551.667 474.95 553.62 470.866 555.5C468.719 555.499 466.682 555.501 464.648 554.713Q464.133 554.518 463.64 554.272Q463.147 554.025 462.682 553.73Q462.216 553.435 461.783 553.094Q461.35 552.753 460.954 552.37Q460.558 551.987 460.203 551.565Q459.848 551.144 459.538 550.689Q459.227 550.234 458.965 549.749Q458.702 549.265 458.49 548.756C457.351 546.016 457.506 542.792 458.727 540.107C460.515 536.177 463.437 534.488 467.319 533.031Z"/>
	<path fill="#5D8AA5" transform="scale(0.5246 0.5246)" d="M556.144 566.493C559.23 566.926 561.921 567.233 564.003 569.833Q564.218 570.102 564.402 570.393Q564.587 570.684 564.738 570.993Q564.889 571.302 565.006 571.626Q565.122 571.95 565.203 572.285Q565.283 572.62 565.326 572.962Q565.369 573.304 565.374 573.648Q565.379 573.992 565.347 574.335Q565.314 574.678 565.244 575.015C564.547 578.549 561.879 580.623 558.993 582.417C557.891 582.5 556.813 582.367 555.735 582.136C553.76 581.712 551.882 580.602 550.837 578.832C549.77 577.023 549.734 574.935 550.243 572.942C551.102 569.576 553.296 568.166 556.144 566.493Z"/>
	<path fill="#5D8AA5" transform="scale(0.5246 0.5246)" d="M495.505 589.975C496.5 589.963 497.522 589.938 498.513 590.053C500.415 590.273 502.35 591.512 503.472 593.04C504.597 594.572 504.95 596.354 504.524 598.196C503.891 600.933 501.915 602.341 499.612 603.662C498.738 603.674 497.855 603.689 496.984 603.611C494.946 603.429 492.812 602.217 491.62 600.554C490.622 599.163 490.3 597.499 490.621 595.827C491.167 592.989 493.212 591.454 495.505 589.975Z"/>
	<path fill="#5D8AA5" transform="scale(0.5246 0.5246)" d="M500.355 502.511C501.346 502.472 502.36 502.431 503.346 502.565C505.284 502.829 507.21 503.904 508.368 505.497C509.367 506.871 509.696 508.517 509.36 510.178C508.808 512.911 506.885 514.353 504.669 515.778Q503.64 515.778 502.615 515.68C500.263 515.472 498.076 514.772 496.589 512.815C495.712 511.661 495.435 510.266 495.623 508.851C496.011 505.918 498.168 504.221 500.355 502.511Z"/>
	<path fill="#5D8AA5" transform="scale(0.5246 0.5246)" d="M542.833 510.993C543.017 510.985 543.2 510.97 543.384 510.969C545.976 510.951 548.615 511.39 550.48 513.357Q550.684 513.57 550.865 513.803Q551.045 514.037 551.198 514.289Q551.352 514.541 551.478 514.808Q551.603 515.075 551.699 515.354Q551.795 515.633 551.86 515.92Q551.925 516.208 551.958 516.501Q551.992 516.794 551.993 517.09Q551.995 517.385 551.964 517.678C551.678 520.697 549.741 522.33 547.488 524.082C546.427 524.321 545.245 524.564 544.161 524.396C542.376 524.12 540.702 523.164 539.667 521.672C538.592 520.121 538.338 518.044 538.699 516.218C539.198 513.689 540.827 512.408 542.833 510.993Z"/>
	<path fill="#FAF9F9" transform="scale(0.5246 0.5246)" d="M337.28 324.694C352.853 322.435 371.291 327.926 383.835 337.168C396.909 346.8 403.92 360.933 406.203 376.818C408.755 394.575 405.508 412.954 394.586 427.486C383.064 442.817 365.744 450.867 347.125 453.47C330.007 454.526 314.427 449.713 300.782 439.276Q299.521 438.324 298.31 437.31Q297.099 436.297 295.941 435.223Q294.782 434.15 293.679 433.02Q292.575 431.889 291.53 430.705Q290.485 429.521 289.501 428.286Q288.516 427.051 287.595 425.767Q286.674 424.484 285.819 423.157Q284.963 421.829 284.176 420.46Q283.388 419.091 282.67 417.684Q281.952 416.277 281.306 414.836Q280.66 413.395 280.087 411.923Q279.514 410.451 279.015 408.952Q278.517 407.453 278.094 405.932Q277.672 404.41 277.326 402.868Q276.981 401.327 276.713 399.771Q276.445 398.214 276.256 396.646C274.072 379.789 279.405 362.625 289.846 349.324C301.901 333.967 318.271 326.943 337.28 324.694Z"/>
	<path fill="#0D1534" transform="scale(0.5246 0.5246)" d="M304.931 382.129C309.469 382.128 313.577 382.704 317.569 385.073C322.49 387.994 325.816 392.966 327.006 398.527Q327.122 399.074 327.21 399.625Q327.299 400.177 327.36 400.733Q327.421 401.288 327.455 401.846Q327.489 402.404 327.495 402.962Q327.501 403.521 327.48 404.08Q327.459 404.638 327.41 405.195Q327.362 405.751 327.286 406.305Q327.21 406.859 327.106 407.408Q327.003 407.957 326.873 408.501Q326.743 409.044 326.586 409.58Q326.43 410.117 326.247 410.645Q326.064 411.173 325.855 411.691Q325.647 412.21 325.413 412.717Q325.179 413.225 324.92 413.72Q324.661 414.215 324.379 414.697Q324.096 415.179 323.79 415.647C319.764 421.802 314.1 423.862 307.297 425.387C303.128 425.014 299.221 424.479 295.509 422.364C290.443 419.479 286.877 414.41 285.533 408.772Q285.402 408.247 285.299 407.716Q285.196 407.185 285.12 406.649Q285.044 406.113 284.996 405.575Q284.947 405.036 284.927 404.495Q284.907 403.954 284.914 403.413Q284.922 402.872 284.957 402.332Q284.992 401.793 285.055 401.255Q285.119 400.718 285.209 400.185Q285.3 399.651 285.418 399.123Q285.536 398.595 285.681 398.074Q285.826 397.553 285.998 397.04Q286.17 396.527 286.368 396.023Q286.566 395.52 286.79 395.027Q287.013 394.534 287.262 394.054Q287.511 393.573 287.784 393.106Q288.057 392.639 288.354 392.187C292.22 386.376 298.271 383.438 304.931 382.129Z"/>
	<path fill="#BF9B6B" transform="scale(0.5246 0.5246)" d="M302.101 386.095C306.005 385.818 309.614 385.713 313.314 387.241Q314.083 387.559 314.816 387.952Q315.55 388.344 316.24 388.808Q316.931 389.271 317.573 389.801Q318.214 390.331 318.8 390.922Q319.385 391.513 319.909 392.159Q320.434 392.805 320.891 393.5Q321.348 394.195 321.735 394.932Q322.121 395.668 322.432 396.44Q322.767 397.292 323.017 398.173Q323.267 399.054 323.431 399.955Q323.594 400.856 323.669 401.768Q323.743 402.681 323.729 403.596Q323.715 404.512 323.611 405.421Q323.508 406.331 323.316 407.226Q323.125 408.122 322.847 408.994Q322.569 409.867 322.208 410.708C319.88 416.053 315.722 418.736 310.538 420.83C307.534 421.098 304.429 421.062 301.52 420.181Q301.094 420.056 300.675 419.909Q300.256 419.762 299.845 419.594Q299.434 419.425 299.033 419.235Q298.631 419.045 298.24 418.835Q297.849 418.624 297.47 418.393Q297.09 418.163 296.723 417.912Q296.356 417.662 296.003 417.393Q295.65 417.124 295.311 416.837Q294.972 416.55 294.649 416.246Q294.325 415.941 294.018 415.62Q293.711 415.299 293.421 414.963Q293.131 414.627 292.86 414.275Q292.588 413.924 292.334 413.559Q292.081 413.195 291.848 412.817Q291.614 412.439 291.4 412.05Q291.186 411.661 290.993 411.261C288.813 406.722 288.576 401.161 290.469 396.482C292.686 391.004 296.96 388.37 302.101 386.095Z"/>
	<path fill="#0D1534" transform="scale(0.5246 0.5246)" d="M306.995 387.583C308.697 388.215 310.494 388.856 312.054 389.789Q312.736 390.202 313.371 390.684Q314.007 391.165 314.589 391.71Q315.172 392.255 315.695 392.856Q316.218 393.458 316.676 394.111Q317.134 394.763 317.522 395.46Q317.91 396.156 318.225 396.889Q318.539 397.622 318.776 398.383Q319.013 399.144 319.17 399.926C319.902 403.716 319.14 408.049 316.905 411.227C314.087 415.233 310.303 416.435 305.723 417.169C302.516 416.52 299.623 415.55 297.219 413.223C294.212 410.313 292.57 404.665 292.507 400.508C292.373 391.742 302.182 393.297 306.369 388.37C306.586 388.115 306.787 387.845 306.995 387.583Z"/>
	<path fill="#FAF9F9" transform="scale(0.5246 0.5246)" d="M305.188 404.527L304.637 405.022C303.117 406.371 301.742 407.909 299.565 407.831C298.731 407.801 298.021 407.454 297.424 406.856C295.944 405.371 295.747 402.589 296.089 400.645C296.4 398.883 297.17 397.543 298.72 396.577C301.326 394.954 306.687 392.091 309.757 392.942C311.96 393.553 313.677 395.49 314.676 397.467C315.53 399.156 316.423 402.209 315.521 404.042C314.849 405.406 314.352 405.574 313.051 406.188C311.465 406.166 310.367 405.81 308.898 405.235C308.837 407.071 308.947 408.663 307.714 410.107L306.815 409.61C305.796 407.928 305.522 406.45 305.188 404.527Z"/>
	<path fill="#E9CFC9" transform="scale(0.5246 0.5246)" d="M305.188 404.527C306.856 404.286 307.396 404.47 308.898 405.235C308.837 407.071 308.947 408.663 307.714 410.107L306.815 409.61C305.796 407.928 305.522 406.45 305.188 404.527Z"/>
	<path fill="#0D1534" transform="scale(0.5246 0.5246)" d="M372.132 414.719Q374.724 414.558 377.321 414.584C380.555 414.638 383.867 415.276 386.12 417.811C387.74 419.634 388.349 422.081 388.205 424.477C388.035 427.314 386.804 430.683 384.537 432.521C380.434 435.846 370.266 434.258 365.156 433.905C362.626 430.667 359.094 428.054 356.119 425.196C352.311 417.2 337.386 424.922 331.803 421.633C331.193 421.273 331.255 420.797 331.09 420.167L331.682 419.339C338.323 417.538 354.314 418.97 361.592 419.329C364.936 415.577 367.299 415.032 372.132 414.719Z"/>
	<path fill="#FAF9F9" transform="scale(0.5246 0.5246)" d="M371.8 418.216C373.943 417.973 376.445 417.782 378.592 418.079C380.946 418.403 383.714 420.097 384.988 422.117C385.694 423.237 386.076 424.809 385.586 426.093C384.839 428.047 382.916 429.815 380.978 430.494L365.591 430.482L365.573 418.669L371.8 418.216Z"/>
	<path fill="#0D1534" transform="scale(0.5246 0.5246)" d="M313.083 354.173C320.355 353.869 327.553 354.386 334.818 354.428C341.492 354.467 353.404 353.158 359.482 354.788C360.492 355.059 360.672 355.065 361.195 355.997L360.384 357.035C356.357 358.631 329.892 357.453 323.629 357.396C319.985 357.232 316.352 357.343 312.707 357.431C314.234 361.003 315.171 365.143 314.352 369.027C313.894 371.2 312.743 372.906 310.801 374.012C308.337 375.414 304.826 375.604 302.146 374.783Q301.612 374.615 301.098 374.393Q300.584 374.17 300.097 373.896Q299.609 373.621 299.152 373.297Q298.696 372.973 298.275 372.603Q297.855 372.234 297.475 371.823Q297.095 371.411 296.76 370.963Q296.425 370.514 296.139 370.033Q295.852 369.552 295.617 369.044C294.78 367.198 294.618 365.226 295.37 363.322C298.8 354.638 303.988 358.292 309.852 356.556C310.626 356.327 311.416 354.858 313.083 354.173Z"/>
	<path fill="#FAF9F9" transform="scale(0.5246 0.5246)" d="M303.635 359.966C304.593 359.987 305.565 360 306.515 360.12C308.085 360.319 309.612 361.213 310.529 362.511C311.346 363.669 311.592 365.085 311.3 366.456C310.751 369.023 309.012 370.5 306.927 371.888C305.862 371.805 304.773 371.736 303.721 371.54C302.197 371.255 300.73 370.2 299.874 368.914C299.101 367.753 298.876 366.405 299.197 365.051C299.81 362.471 301.491 361.296 303.635 359.966Z"/>
	<path fill="#0D1534" transform="scale(0.5246 0.5246)" d="M367.299 355.19C372.192 355.05 377.887 354.391 382.637 355.645C384.871 356.235 386.888 357.418 387.991 359.519C389.056 361.548 389.185 364.397 388.517 366.569C387.625 369.465 385.417 370.938 382.913 372.366C378.15 372.884 370.089 373.544 365.725 371.45C363.92 370.584 362.519 369.171 361.894 367.247C360.883 364.132 362.126 360.583 363.715 357.879C364.673 356.249 365.514 355.713 367.299 355.19Z"/>
	<path fill="#E9CFC9" transform="scale(0.5246 0.5246)" d="M370.221 358.112C373.096 357.931 376.229 357.572 379.085 358.041C381.499 358.437 384.248 359.463 385.499 361.727C386.224 363.04 386.193 364.543 385.603 365.901C384.65 368.096 383.202 369.234 380.998 370.002C377.5 370.043 371.284 370.827 368.007 369.574C366.407 368.962 365.159 367.909 364.665 366.218C364.163 364.498 364.582 362.525 365.484 361.01C366.637 359.073 368.168 358.648 370.221 358.112Z"/>
	<path fill="#0D1534" transform="scale(0.5246 0.5246)" d="M374.692 387.147C378.537 386.979 382.709 386.517 386.529 386.978C389.117 387.29 391.92 388.126 393.521 390.337C394.99 392.364 395.308 395.291 394.889 397.707C394.317 400.998 392.494 402.904 389.899 404.816C385.154 405.355 380.08 406.206 375.536 404.242C373.058 403.17 371.117 401.33 370.171 398.776C369.195 396.139 369.509 393.634 370.672 391.116C371.668 388.961 372.483 388.016 374.692 387.147Z"/>
	<path fill="#E9CFC9" transform="scale(0.5246 0.5246)" d="M375.698 390.096C380.144 389.855 385.706 389.348 389.823 391.235C391.167 391.851 392.379 392.852 392.689 394.378C393.263 397.202 391.155 399.588 389.608 401.698C385.344 402.68 379.665 403.244 375.76 400.936C374.363 400.11 373.37 398.929 373.124 397.272C372.752 394.76 374.252 392.023 375.698 390.096Z"/>
	<path fill="#0D1534" transform="scale(0.5246 0.5246)" d="M337.194 377.992C338.22 378.137 339.241 378.408 340.253 378.631C341.32 379.565 341.37 379.54 341.6 380.926C340.995 382.95 339.746 384.259 338.401 385.819C345.924 385.572 359.372 384.164 366.019 387.359L366.092 388.009C360.157 390.597 340.686 388.968 333.492 388.907C333.887 392.437 333.378 398.155 335.791 400.993C336.782 402.16 337.972 402.261 339.376 402.467C345.649 402.271 358.308 400.99 363.959 403.095C364.871 403.434 364.576 403.198 364.977 404.059C364.429 404.669 364.074 404.997 363.278 405.271C359.71 406.497 336.886 406.318 334.162 404.255C330.13 401.201 330.255 391.423 329.493 386.671C331.438 382.608 333.298 380.342 337.194 377.992Z"/>
	<path fill="#0D1534" transform="scale(0.5246 0.5246)" d="M313.377 371.59C321.569 371.343 329.805 371.378 338.002 371.308C344.92 371.248 352.37 370.875 359.233 371.817C360.802 372.032 361.92 372.209 362.895 373.492L362.383 374.509C353.107 375.176 343.733 374.882 334.433 374.925C328.346 374.953 321.679 375.506 315.677 374.683C314.259 374.489 313.889 374.611 313.019 373.5L313.377 371.59Z"/>
	<path fill="#0D1534" transform="scale(0.5246 0.5246)" d="M506.87 143.188C523.995 141.657 541.31 147.507 554.736 158.041C573.012 172.382 579.851 190.027 582.549 212.452Q583.842 212.939 585.108 213.492C629.229 232.712 672.466 276.513 690.078 321.404C701.99 322.321 714.361 326.198 724.259 332.973C738.769 342.905 747.686 358.828 750.766 375.955C753.973 393.793 750.389 412.426 739.931 427.326C730.022 441.442 713.396 452.991 696.232 455.823C678.584 458.734 659.004 453.146 644.617 442.795C626.519 429.774 619.137 412.558 615.551 391.178C610.688 391.567 605.559 392.017 600.689 391.771C597.493 391.61 595.292 391.459 593.049 388.968C597.136 385.266 610.262 386.976 615.773 387.093C616.154 370.231 622.246 354.201 633.901 341.904C647.874 327.16 665.615 321.685 685.47 321.141C667.882 274.669 626.523 238.104 582.862 216.493C581.924 232.711 578.967 248.604 569.089 261.941C558.827 275.796 543.237 283.625 526.378 285.999C507.816 288.613 485.752 285.793 470.499 274.117C455.25 262.442 445.53 240.385 443.089 221.729Q442.869 220.08 442.732 218.422Q442.595 216.764 442.541 215.102Q442.487 213.439 442.517 211.776Q442.546 210.113 442.659 208.453Q442.772 206.794 442.969 205.142Q443.165 203.49 443.444 201.85Q443.722 200.21 444.083 198.586Q444.444 196.962 444.886 195.358Q445.327 193.755 445.849 192.175Q446.371 190.595 446.971 189.044Q447.571 187.493 448.248 185.973Q448.926 184.454 449.678 182.97Q450.431 181.487 451.257 180.043Q452.083 178.599 452.981 177.199Q453.878 175.798 454.845 174.444Q455.812 173.091 456.845 171.787C469.474 155.594 486.52 145.77 506.87 143.188ZM456.659 250.527C461.264 236.509 466.96 215.044 481.027 207.615C484.755 205.646 488.659 204.918 492.781 204.319C493.755 200.154 494.167 195.95 494.615 191.706C492.384 188.726 488.686 184.451 489.229 180.442C489.47 178.665 490.58 176.779 491.36 175.183C493.625 170.545 493.803 162.735 499.322 160.611C501.239 159.873 503.283 159.436 505.221 158.732C510.706 156.739 514.154 154.583 519.771 157.359C526.029 160.451 533.665 164.591 537.011 170.82C536.836 176.227 538.511 184.747 534.211 188.803C532.821 190.114 531.011 191.055 529.355 191.982C527.51 197.118 525.538 201.753 521.661 205.721C533.839 210.281 538.898 217.669 544.093 229.136C547.813 237.348 550.28 245.738 552.344 254.489C546.772 256.218 541.301 257.368 535.489 257.936C530.786 258.395 524.684 257.962 520.295 259.603C517.689 260.577 515.657 262.815 513.181 263.989C511.356 264.854 510.201 263.537 508.781 264.338C510.252 267.223 514.967 266.992 517.071 269.372C515.951 270.808 512.639 271.215 510.864 271.595C508.761 269.644 506.506 268.174 506.318 265.129C507.154 263.363 508.352 262.376 509.802 261.101C509.061 259.711 508.594 259.345 508.891 257.762C514.212 252.883 527.322 258.81 527.894 252.305C528.306 247.625 526.775 242.135 525.61 237.628C522.454 238.109 518.775 239.12 515.946 237.112C514.872 236.35 514.69 235.915 514.177 234.749C514.565 233.256 515.095 232.414 516.491 231.656C518.859 230.372 523.305 229.647 525.886 230.479C526.977 230.831 527.466 231.376 527.94 232.435C530.675 238.54 531.09 248.237 531.619 254.933C537.335 254.126 543.01 253.307 548.662 252.119L546.14 243.883C540.689 229.689 536.544 216.002 521.937 208.955C520.797 212.671 519.762 215.097 516.255 217.061C511.194 219.894 504.996 219.675 499.615 217.921C497.021 217.076 493.799 215.367 492.549 212.815C491.792 211.272 491.541 209.458 491.235 207.783C481.892 210.511 476.239 214.607 471.537 223.192C466.242 232.857 462.218 244.417 459.746 255.168C462.099 258.931 464.494 262.725 467.884 265.654L468.408 265.734C469.007 261.264 466.927 255.657 466.231 251.12Q465.335 245.242 465.547 239.3C469.55 238.502 487.215 234.545 489.922 236.792C492.971 239.324 497.233 266.148 497.247 271.335C497.252 273.071 497.335 274.039 495.948 275.216C493.727 277.102 488.202 277.443 485.308 277.81C503.746 284.715 526.473 285.635 544.662 277.432C548.542 275.682 552.104 273.511 555.682 271.218C547.286 273.049 539.978 271.543 532.031 272.758C527.646 273.428 523.719 275.889 519.333 276.413C517.426 276.641 514.9 276.696 513.176 275.691C512.475 275.283 512.421 275.199 511.869 274.724C511.811 273.97 511.63 273.803 512.155 273.159C513.201 271.876 514.581 271.637 516.141 271.559C517.065 271.513 517.702 271.501 518.537 271.943C518.461 272.111 518.383 272.277 518.31 272.447C518.04 273.076 518.078 272.812 518.099 273.344C522.343 273.02 525.696 270.347 529.786 269.61C542.835 267.259 555.072 273.147 565.355 261.324C576.122 248.943 580.2 227.415 578.901 211.454C577.342 192.297 569.173 174.974 554.279 162.588C541.201 151.713 523.5 145.378 506.452 147.093L505.716 147.169C487.289 149.506 471.219 159.089 459.867 173.802C449.69 186.99 444.553 203.627 446.776 220.226C448.195 230.823 451.887 241.007 456.659 250.527ZM515.186 207.155C512.491 207.639 509.797 208.109 507.125 208.712C508.122 212.013 508.635 213.819 511.56 215.969C514.532 214.659 517.409 212.672 518.603 209.467C519.008 208.381 518.888 208.188 518.445 207.196C517.249 206.795 516.407 206.984 515.186 207.155ZM474.69 257.183L491.201 255.277C490.754 252.638 490.52 249.83 489.249 247.447C488.297 246.908 488.3 247.053 487.275 247.159C483.45 247.667 479.602 248.088 475.842 248.967C474.01 249.395 472.075 249.27 470.483 250.369C469.953 251.88 470.183 252.928 470.867 254.37C471.319 255.325 471.809 256.868 472.98 257.133C473.364 257.22 474.279 257.188 474.69 257.183ZM506.392 208.539C502.528 206.043 499.67 204.06 496.797 200.411C496.768 200.373 496.727 200.346 496.692 200.313C495.938 203.468 495.446 206.473 495.173 209.706C496.013 211.807 496.79 213.951 499.009 214.92C499.753 215.244 500.128 215.017 500.879 214.863C501.512 214.332 502.122 213.942 502.519 213.206C503.742 211.543 504.934 210.003 506.392 208.539Z"/>
	<path fill="#FAF9F9" transform="scale(0.5246 0.5246)" d="M675.702 325.688C683.518 324.385 693.052 325.393 700.733 327.156C716.571 330.791 729.812 339.796 738.363 353.699C747.586 368.693 750.163 387.566 746.097 404.63C741.398 424.353 729.226 435.718 712.534 445.973L708.323 434.603C713.09 432.05 718.944 428.383 721.915 423.771C724.837 419.234 723.768 413.249 722.667 408.27C721.232 401.783 717.995 389.14 713.438 384.174C711.863 382.458 709.289 381.109 707.325 379.846C707.955 377.823 708.496 375.75 708.775 373.647C709.767 366.195 706.091 361.403 701.683 355.97C701.184 351.877 700.604 347.587 698.329 344.049C695.656 339.892 691.709 338.411 687.144 337.299Q686.091 337.161 685.029 337.13C680.745 336.963 675.547 337.39 672.321 340.529C668.49 344.256 668.108 350.174 665.603 354.686C663.364 358.72 659.734 361.904 658.131 366.317C656.894 369.721 657.054 373.46 657.009 377.029C654.583 379.418 652.988 381.735 651.53 384.782C653.469 397.658 648.745 403.112 646.982 415.064C646.452 418.656 646.452 422.561 648.823 425.538C652.673 430.371 660.261 430.981 665.961 431.741C664.23 436.989 662.388 442.207 660.6 447.436C655.119 445.231 649.806 441.791 645.127 438.21C631.465 427.757 622.301 412.997 620.089 395.839Q619.89 394.307 619.766 392.766Q619.642 391.226 619.593 389.682Q619.545 388.137 619.572 386.592Q619.6 385.047 619.703 383.506Q619.806 381.964 619.985 380.429Q620.163 378.894 620.417 377.37Q620.671 375.846 620.999 374.336Q621.327 372.826 621.729 371.334Q622.13 369.841 622.605 368.371Q623.079 366.9 623.625 365.455Q624.171 364.009 624.787 362.592Q625.404 361.175 626.088 359.79Q626.773 358.405 627.525 357.055Q628.277 355.705 629.095 354.394Q629.912 353.082 630.793 351.813Q631.673 350.543 632.615 349.318C643.521 335.293 658.245 327.808 675.702 325.688Z"/>
	<path fill="#E9CFC9" transform="scale(0.5246 0.5246)" d="M703.071 431.502C691.143 431.556 660.418 431.77 651.954 423.321C650.744 422.114 650.475 420.25 650.535 418.612C650.809 411.102 656.459 389.202 661.913 384.844C663.185 383.827 664.152 383.747 665.71 383.965C666.785 384.765 667.359 385.407 667.821 386.649C670.855 394.809 665.719 408.834 662.36 416.313C668.41 419.942 679.102 425.099 685.841 426.979C685.843 426.938 685.863 426.895 685.848 426.858C685.275 425.391 685.734 424.986 685.629 423.585C685.571 422.806 685.436 422.465 684.817 421.998C683.137 420.728 681.25 421.037 679.275 421.182L678.577 421.237C677.703 420.579 677.726 420.505 677.427 419.441C678.673 417.016 678.08 415.16 677.884 412.597C677.332 405.352 679.424 401.287 684.015 395.898C688.599 395.927 693.976 395.225 698.439 396.145C701.606 399.082 703.661 415.621 703.994 420.415C703.101 420.021 702.186 419.642 701.323 419.187C700.138 418.563 699.838 418.317 699.421 417.043C700.136 414.302 700.172 412.369 699.733 409.576L699.592 408.709C696.777 406.593 695.25 403.959 692.758 401.586L691.936 401.674L691.467 403.48C689.046 402.16 686.157 401.265 683.405 402.004C682.041 402.37 681.191 403.003 680.136 403.911L680.028 404.618C682.948 405.61 687.131 403.975 690.283 404.145C690.495 404.198 690.708 404.244 690.918 404.304C692.982 404.896 696.427 407.368 697.343 409.408C698.101 411.098 698.029 412.657 697.282 414.31C695.738 417.725 692.678 418.444 689.432 419.643C688.656 422.048 687.864 424.396 687.241 426.852C688.767 427.358 693.27 421.396 695.379 420.65C697.175 420.014 700.677 422.537 702.438 423.459C702.741 426.131 702.887 428.82 703.071 431.502Z"/>
	<path fill="#E9CFC9" transform="scale(0.5246 0.5246)" d="M504.037 172.589C510.331 172.408 515.333 173.028 520.909 176.1C524.118 177.869 526.735 179.896 527.777 183.533C526.219 186.656 527.404 188.829 526.691 191.977C525.656 196.555 522.342 201.521 518.442 204.096C515.887 205.137 513.676 205.931 510.874 205.843C506.971 205.72 501.896 204.688 499.25 201.533C498.436 200.562 497.934 199.378 497.65 198.151C496.985 195.278 497.621 192.369 497.233 189.495C496.822 186.446 495.534 183.33 495.786 180.251C496.974 179.108 497.641 179.225 499.152 178.719C502.065 177.743 502.808 175.157 504.037 172.589Z"/>
	<path fill="#E9CFC9" transform="scale(0.5246 0.5246)" d="M677.505 434.605C686.349 434.326 695.207 434.817 704.051 435.009C706.11 439.315 707.909 443.686 709.673 448.117C704.13 450.216 698.35 451.505 692.597 452.879L692.271 447.878C692.192 446.295 692.014 444.953 691.587 443.424L691.141 443.463C689.786 446.239 689.402 450.193 688.767 453.252C680.527 452.069 672.346 451.308 664.406 448.651C668.245 442.879 670.851 437.521 677.505 434.605Z"/>
	<path fill="#E9CFC9" transform="scale(0.5246 0.5246)" d="M684.837 349.315C688.405 350.615 691.829 352.266 695.272 353.862C696.764 354.907 697.292 355.731 697.572 357.556C697.71 358.453 697.927 359.501 697.701 360.386C696.935 363.695 696.224 366.829 694.443 369.778C692.721 372.63 690.215 375.275 686.841 376.01C684.288 376.567 681.832 375.883 679.724 374.392C674.35 370.594 672.117 363.183 670.868 357.048C674.148 353.521 680.576 351.872 684.837 349.315Z"/>
	<path fill="#FAF9F9" transform="scale(0.5246 0.5246)" d="M695.272 353.862C696.764 354.907 697.292 355.731 697.572 357.556C697.71 358.453 697.927 359.501 697.701 360.386C696.544 360.827 695.399 361.212 694.215 361.569C692.44 361.384 691.414 360.08 690.18 358.914C691.959 357.329 693.598 355.559 695.272 353.862Z"/>
	<path fill="#E9CFC9" transform="scale(0.5246 0.5246)" d="M701.941 384.443C704.202 384.42 707.824 384.07 709.653 385.651C714.112 389.504 720.742 411.281 720.407 417.376C720.195 421.246 716.84 424.064 714.174 426.457C712.55 427.731 710.608 429.596 708.53 430.015C707.67 430.188 707.555 429.898 706.864 429.47C705.746 426.116 708.552 420.469 709.698 417.17C707.467 406.082 703.463 395.732 701.941 384.443Z"/>
	<path fill="#2E5F83" transform="scale(0.5246 0.5246)" d="M510.986 159.582C513.362 159.508 516.219 159.739 518.534 160.263C521.779 160.997 521.269 163.18 523.411 164.62C526.492 166.691 530.57 166.338 532.629 169.996C534.699 173.672 535.12 180.224 533.987 184.215C533.646 185.417 533.247 186.554 532.127 187.213L531.261 186.956C529.375 185.021 529.477 182.719 529.195 180.158C527.707 178.233 526.082 176.698 524.274 175.094C522.462 173.728 520.576 172.391 518.504 171.445C514.286 169.518 507.468 168.634 503.105 170.501C500.207 171.741 501.113 173.269 499.775 175.564C499.044 176.818 498.467 176.776 497.184 176.956C497.112 176.885 497.024 176.827 496.968 176.743C495.358 174.34 496.311 169.478 496.647 166.762C503.111 160.683 500.416 164.653 505.093 163.052C507.072 162.375 509.183 160.671 510.986 159.582Z"/>
	<path fill="#2E5F83" transform="scale(0.5246 0.5246)" d="M660.302 368.018C661.36 365.428 662.849 362.351 664.715 360.244C665.417 359.452 665.435 359.371 666.522 359.35C669.781 366.009 674.312 371.572 678.14 377.855L677.847 378.711C671.343 381.817 667.256 377.357 662.357 379.409C662.858 380.327 662.877 380.103 662.746 381.276C660.909 383.585 657.88 385.137 655.427 386.749C655.466 386.597 655.504 386.444 655.544 386.292L655.753 385.533C655.805 385.336 655.85 385.137 655.902 384.94C656.761 381.657 658.234 380.919 661.008 379.306C661.138 375.565 660.627 371.747 660.302 368.018Z"/>
	<path fill="#2E5F83" transform="scale(0.5246 0.5246)" d="M680.944 340.098C683.495 339.886 686.065 340.121 688.487 340.97C691.725 342.106 694.725 344.148 696.187 347.349C696.891 348.89 697.408 350.996 696.849 352.635C694.201 353.056 689.428 347.922 686.897 346.48C686.723 346.381 686.547 346.286 686.371 346.189C685.543 346.013 684.725 345.829 683.87 345.925C681.461 346.197 679.721 348.976 678.285 350.708C675.547 351.629 672.73 352.386 669.959 353.207C670.532 349.944 671.13 346.871 672.269 343.753C675.056 342.088 677.801 340.909 680.944 340.098Z"/>
	<path fill="#E9CFC9" transform="scale(0.5246 0.5246)" d="M490.699 264.244C491.409 264.272 491.673 264.101 492.191 264.682C493.759 266.439 493.521 269.839 493.616 272.081C488.365 273.483 483.627 274.579 478.172 274.468C476.966 273.953 475.408 273.41 474.492 272.459C473.232 271.152 473.364 268.46 473.244 266.744C478.941 265.26 484.843 264.684 490.699 264.244Z"/>
	<defs>
		<linearGradient id="gradient_0" gradientUnits="userSpaceOnUse" x1="704.16559" y1="359.12314" x2="698.89148" y2="378.68405">
			<stop offset="0" stop-color="#05436B"/>
			<stop offset="1" stop-color="#236180"/>
		</linearGradient>
	</defs>
	<path fill="url(#gradient_0)" transform="scale(0.5246 0.5246)" d="M698.835 355.706C701.568 356.937 704.82 363.509 706.501 366.106Q706.523 367.141 706.525 368.177C706.532 371.37 706.449 376.92 703.685 379.057C702.278 380.145 701.495 379.877 699.837 379.812C697.552 379.057 695.318 378.89 692.939 378.669C693.323 378.133 693.682 377.593 694.053 377.05C695.591 374.794 695.164 372.707 696.147 370.442C696.818 368.895 699.2 368.558 700.719 367.955L701.091 367.034C699.674 363.203 699.18 359.747 698.835 355.706Z"/>
	<path fill="#FAF9F9" transform="scale(0.5246 0.5246)" d="M678.14 377.855C681.263 379.184 684.747 380.921 688.158 379.555C689.524 379.007 690.751 377.993 691.924 377.121C692.038 380.563 692.355 383.627 689.775 386.326C688.206 387.968 686.079 389.272 684.193 390.521C681.799 389.442 678.949 388.197 677.853 385.61C676.835 383.209 677.26 381.14 677.847 378.711L678.14 377.855Z"/>
	<path fill="#E9CFC9" transform="scale(0.5246 0.5246)" d="M679.625 395.307L680.261 395.96C680.193 397.881 675.873 402.545 675.09 405.594C674.239 408.91 676.559 413.196 674.931 416.062C673.329 416.681 671.492 416.006 669.868 415.633C668.785 414.891 669.195 415.367 668.621 414.219C668.899 411.509 670.077 399.34 671.285 397.849C673.251 396.827 675.002 397.292 677.143 397.564C677.861 397.129 678.371 396.663 678.938 396.053L679.625 395.307Z"/>
	<path fill="#A2E3FC" transform="scale(0.5246 0.5246)" d="M485.376 240.23C486.303 240.033 486.755 240.073 487.674 240.192C487.967 240.562 488.398 241.072 488.595 241.489C489.169 242.696 489.103 243.143 488.672 244.296C485.075 246.852 476.994 246.665 472.614 247.312C472.454 247.317 472.294 247.338 472.135 247.328C470.859 247.242 469.885 246.593 469.157 245.572C468.577 244.759 468.778 244.719 468.92 243.83C472.279 240.543 480.776 240.606 485.376 240.23Z"/>
	<path fill="#E9CFC9" transform="scale(0.5246 0.5246)" d="M483.153 259.199Q484.739 259.036 486.328 258.899C488.148 258.745 489.892 258.485 491.365 259.737L490.743 260.618C487.97 262.035 485.169 262.122 482.118 262.388C479.027 262.82 476.172 263.417 473.123 262.453L472.905 261.714C475.841 259.425 479.596 259.471 483.153 259.199Z"/>
	<path fill="#5D8AA5" transform="scale(0.5246 0.5246)" d="M673.128 384.297C673.343 384.45 673.585 384.571 673.774 384.756C675.047 386 679.42 391.439 679.605 392.983L678.217 394.11C676.846 394.375 675.562 394.471 674.174 394.515C673.48 394.212 672.933 393.926 672.424 393.345C671.165 391.907 670.761 390.553 670.906 388.647C671.069 386.494 671.496 385.734 673.128 384.297Z"/>
	<path fill="#0D1534" transform="scale(0.5246 0.5246)" d="M333.908 660.714C337.619 660.684 343.219 660.104 346.638 661.497C347.325 661.777 348.116 662.125 348.349 662.868C350.105 668.449 350.016 743.825 349.479 754.599C349.369 756.811 349.329 759.512 348.328 761.505C343.769 764.942 332.68 763.675 327.161 762.94C321.312 757.487 316.951 749.259 312.471 742.604C304.582 730.885 296.612 719.24 288.977 707.351C289.157 715.118 290.792 757.761 288.121 761.621C287.119 763.069 284.624 763.249 283.061 763.482C278.473 763.552 273.618 763.863 269.058 763.385C267.256 763.196 265.34 762.997 264.132 761.516C263.249 757.819 263.163 753.867 263.04 750.077C262.775 741.943 262.122 666.483 263.575 663.033C263.635 662.891 263.723 662.761 263.796 662.625L263.704 662.29C267.83 659.585 281.647 660.965 287.075 661.092C292.215 667.647 296.727 674.689 301.41 681.573Q312.278 697.433 323.345 713.155C324.151 702.849 324.062 692.416 324.002 682.085C323.973 677.131 323.619 671.933 324.034 667.005C324.137 665.783 324.179 664.203 325.075 663.267C327.249 660.994 330.981 660.989 333.908 660.714Z"/>
	<path fill="#5D8AA5" transform="scale(0.5246 0.5246)" d="M267.51 665.054L284.532 665.518C294.077 678.038 302.854 691.434 311.803 704.399C315.595 709.891 319.107 715.941 323.437 721.022C324.19 721.905 324.878 722.686 326.04 723.02C326.793 723.236 326.997 722.915 327.624 722.569C329.722 715.28 328.532 703.979 328.494 696.226L328.392 665.435L344.478 665.46L345.008 731.636C345.014 738.277 345.671 751.551 344.417 757.51C343.564 758.555 343.488 758.401 342.125 758.559L328.592 758.584Q316.179 739.793 303.442 721.221C299.345 715.133 295.679 708.641 291.276 702.78C290.146 701.276 288.926 699.345 287.099 698.846L285.792 699.753C282.592 705.691 284.458 748.455 284.587 758.71C278.883 758.694 273.2 758.706 267.5 758.937L267.51 665.054Z"/>
	<path fill="#0D1534" transform="scale(0.5246 0.5246)" d="M179.58 660.668C187.375 660.302 243.174 659.181 247.177 662.479C248.574 663.631 248.711 667.357 248.763 669.063C248.87 672.587 249.294 679.09 246.594 681.724C245.507 682.785 243.952 683.326 242.469 683.514C238.118 684.065 233.393 683.751 228.992 683.757Q216.244 683.658 203.5 683.958L203.5 699.091C210.31 699.005 232.991 697.376 237.491 700.814C238.848 701.851 239.293 703.336 239.459 704.969C239.872 709.025 240.177 718.041 237.457 721.235C231.293 724.204 211.11 722.788 203.409 722.749C203.307 726.318 203.344 729.901 203.321 733.471L203.413 739.715C210.652 739.602 243.868 738.14 248.45 740.916C249.39 741.486 249.936 742.529 250.203 743.567C251.319 747.89 251.657 757.605 249.212 761.356C248.422 762.567 247.742 762.782 246.375 763.049C237.663 764.756 220.726 763.311 211.217 763.264C201.889 763.219 192.322 763.991 183.027 763.246C181.028 763.086 178.954 762.918 177.278 761.73C176.229 758.864 175.986 755.978 175.855 752.953C175.558 746.117 175.921 739.223 175.961 732.381L176.19 691.554C176.231 685.363 174.929 668.777 176.444 664.059C177.034 662.222 177.919 661.524 179.58 660.668Z"/>
	<path fill="#5D8AA5" transform="scale(0.5246 0.5246)" d="M187.697 665.259C206.244 664.639 224.919 665.245 243.472 665.541C243.555 670.028 243.549 674.521 243.584 679.009C228.647 678.985 213.491 677.637 198.666 679.957C198.3 685.374 197.244 698.334 199.572 702.696C205.189 706.047 227.612 704.457 234.552 704.291L234.582 717.925C229.31 717.943 202.053 716.299 199.568 719.057C197.706 721.122 198.263 728.98 198.146 731.882C198.039 735.435 197.758 739.859 199.554 743.02C204.772 746.364 238.214 744.623 245.989 744.511L246.012 758.492L180.812 758.583C180.058 727.595 180.615 696.387 180.755 665.384L187.697 665.259Z"/>
	<path fill="#0D1534" transform="scale(0.5246 0.5246)" d="M480.693 661.18C485.274 660.885 491.267 660.13 495.51 661.978C496.923 663.512 497.757 665.638 498.608 667.529C507.184 686.562 514.502 706.298 522.383 725.638C525.365 732.957 534.624 750.947 535.169 757.733C535.264 758.919 535.05 759.885 534.08 760.67C530.021 763.951 515.183 762.494 510.118 762.142C507.258 756.379 504.966 750.635 503.09 744.479L492.875 744.376L471.278 744.119Q467.7 753.502 463.926 762.807Q458.383 763.109 452.833 763.212C449.502 763.263 443.198 763.696 440.682 761.256C440.454 759.192 441.286 756.927 441.933 754.972C445.974 742.763 451.192 730.747 455.813 718.731C462.124 702.321 468.102 685.769 474.59 669.429C475.985 665.915 477.007 662.775 480.693 661.18ZM478.62 722.875L489.125 722.872L495.459 722.849C493.945 718.123 490.235 703.851 486.894 700.399L478.62 722.875Z"/>
	<path fill="#2E5F83" transform="scale(0.5246 0.5246)" d="M480.967 664.979L492.782 664.994C500.319 679.456 505.716 695.689 511.822 710.848C518.197 726.675 525.396 742.294 531.173 758.347C525.103 758.521 519.012 758.469 512.938 758.502C510.675 752.258 508.136 746.12 505.643 739.965L495.285 740.085Q481.748 740.258 468.211 740.131C465.516 746.153 463.315 752.392 461.011 758.571L445.501 758.572C448.661 748.427 452.926 738.381 456.674 728.427L480.967 664.979ZM478.62 722.875L489.125 722.872L495.459 722.849C493.945 718.123 490.235 703.851 486.894 700.399L478.62 722.875Z"/>
	<path fill="#0D1534" transform="scale(0.5246 0.5246)" d="M486.55 689.402C492.666 697.355 498.192 717.012 501.494 726.971L487.627 727.119C482.563 727.47 478.005 727.404 472.998 726.504C474.847 716.418 482.02 698.828 486.55 689.402ZM478.62 722.875L489.125 722.872L495.459 722.849C493.945 718.123 490.235 703.851 486.894 700.399L478.62 722.875Z"/>
	<path fill="#0D1534" transform="scale(0.5246 0.5246)" d="M546.346 661.223C559.44 660.919 572.59 661.15 585.69 661.064C594.643 661.006 603.835 660.396 612.762 660.968C615.534 661.145 618.356 661.383 620.961 662.393C622.006 663.493 622.326 664.449 622.503 665.926C622.796 668.369 622.747 671.951 621.571 674.178C616.595 683.602 608.768 692.316 602.627 701.073C593.356 714.291 584.806 728.073 575.137 741C584.245 740.997 615.188 739.211 621.505 742.071C622.556 742.546 623.154 743.316 623.542 744.394C625.25 749.135 624.368 757.619 622.338 762.166C611.766 763.046 549.088 763.824 541.162 760.516C540.849 760.018 540.651 759.564 540.545 758.981C540.073 756.384 540.602 753.427 541.687 751.046C546.623 740.214 555.346 729.927 562.115 720.128C570.515 707.971 578.429 695.438 586.479 683.045C578.71 682.813 550.51 684.551 545.052 681.571C542.592 678.291 543.05 670.378 543.568 666.337C543.867 664.007 544.44 662.638 546.346 661.223Z"/>
	<path fill="#2E5F83" transform="scale(0.5246 0.5246)" d="M605.895 665.235C609.668 665.284 615.452 664.698 618.692 666.67L618.922 667.879C616.891 674.88 602.538 693.588 597.948 700.251L566.969 745.276C584.503 744.691 602.35 745.453 619.916 745.522L619.914 758.011C613.826 758.711 607.565 758.543 601.442 758.608Q583.657 758.811 565.872 758.548C558.478 758.475 551.131 758.389 543.755 757.814C548.345 746.215 557.022 735.456 564.047 725.146C574.451 709.879 584.912 694.756 593.918 678.599Q570.836 678.26 547.752 678.492C547.426 674.161 547.587 669.768 547.611 665.426Q576.754 665.632 605.895 665.235Z"/>
	<path fill="#0D1534" transform="scale(0.5246 0.5246)" d="M509.422 348.175Q510.377 348.094 511.334 348.059Q512.292 348.025 513.25 348.037Q514.209 348.049 515.165 348.107Q516.122 348.165 517.074 348.27Q518.027 348.374 518.973 348.524Q519.92 348.675 520.858 348.871Q521.796 349.067 522.723 349.309Q523.65 349.55 524.565 349.836Q525.48 350.122 526.379 350.452Q527.279 350.782 528.162 351.155Q529.044 351.528 529.908 351.943Q530.771 352.359 531.614 352.816Q532.456 353.272 533.276 353.769Q534.095 354.266 534.889 354.802Q535.683 355.339 536.451 355.913Q537.218 356.487 537.957 357.097Q538.693 357.711 539.399 358.36Q540.104 359.009 540.776 359.691Q541.449 360.374 542.088 361.089Q542.726 361.804 543.329 362.549Q543.932 363.294 544.497 364.068Q545.062 364.842 545.589 365.642Q546.116 366.443 546.603 367.268Q547.091 368.094 547.537 368.942Q547.983 369.79 548.387 370.659Q548.791 371.528 549.152 372.416Q549.513 373.304 549.83 374.208Q550.147 375.113 550.419 376.032Q550.692 376.951 550.919 377.882Q551.146 378.813 551.327 379.754Q551.509 380.695 551.644 381.644Q551.779 382.593 551.867 383.547Q551.959 384.506 552.003 385.468Q552.047 386.431 552.044 387.394Q552.04 388.357 551.99 389.319Q551.939 390.281 551.841 391.24Q551.742 392.198 551.597 393.151Q551.452 394.103 551.26 395.047Q551.068 395.991 550.829 396.924Q550.591 397.858 550.307 398.778Q550.022 399.699 549.693 400.604Q549.364 401.51 548.991 402.398Q548.617 403.286 548.2 404.154Q547.784 405.023 547.324 405.87Q546.865 406.717 546.365 407.54Q545.865 408.363 545.324 409.161Q544.784 409.959 544.205 410.729Q543.626 411.499 543.01 412.239C536.322 420.121 526.001 424.878 515.776 425.68C506.854 426.756 496.511 423.474 489.396 418.136Q488.608 417.537 487.851 416.9Q487.093 416.263 486.368 415.59Q485.642 414.917 484.95 414.21Q484.259 413.502 483.602 412.761Q482.946 412.02 482.327 411.248Q481.708 410.476 481.127 409.675Q480.546 408.874 480.005 408.045Q479.465 407.216 478.965 406.362Q478.465 405.508 478.008 404.63Q477.551 403.753 477.137 402.854Q476.723 401.955 476.354 401.037Q475.985 400.118 475.661 399.183Q475.337 398.248 475.059 397.298Q474.781 396.349 474.55 395.386Q474.319 394.424 474.135 393.452Q473.952 392.479 473.816 391.499Q473.686 390.581 473.601 389.658Q473.516 388.735 473.477 387.809Q473.438 386.883 473.444 385.956Q473.451 385.029 473.503 384.103Q473.555 383.178 473.652 382.256Q473.75 381.334 473.893 380.418Q474.036 379.502 474.223 378.595Q474.411 377.687 474.643 376.789Q474.876 375.892 475.152 375.007Q475.428 374.122 475.747 373.252Q476.067 372.382 476.428 371.528Q476.79 370.675 477.194 369.84Q477.597 369.006 478.041 368.192Q478.485 367.378 478.969 366.588Q479.452 365.797 479.974 365.031Q480.496 364.264 481.055 363.525C488.029 354.464 498.235 349.552 509.422 348.175Z"/>
	<path fill="#FAF9F9" transform="scale(0.5246 0.5246)" d="M509.599 352.199Q510.443 352.129 511.29 352.097Q512.137 352.066 512.984 352.075Q513.831 352.083 514.677 352.131Q515.523 352.178 516.366 352.265Q517.209 352.352 518.047 352.478Q518.884 352.605 519.715 352.769Q520.547 352.934 521.369 353.138Q522.192 353.341 523.004 353.582Q523.816 353.824 524.616 354.103Q525.416 354.382 526.202 354.697Q526.988 355.013 527.759 355.365Q528.53 355.717 529.283 356.105Q530.037 356.492 530.771 356.914Q531.506 357.336 532.22 357.792Q532.935 358.248 533.627 358.736Q534.319 359.225 534.988 359.745Q535.671 360.281 536.327 360.849Q536.983 361.418 537.61 362.019Q538.237 362.619 538.834 363.25Q539.43 363.88 539.995 364.54Q540.56 365.199 541.091 365.885Q541.623 366.572 542.12 367.283Q542.617 367.995 543.078 368.731Q543.539 369.466 543.964 370.223Q544.388 370.981 544.775 371.758Q545.161 372.535 545.509 373.331Q545.857 374.126 546.165 374.938Q546.473 375.75 546.74 376.576Q547.008 377.401 547.234 378.239Q547.461 379.078 547.646 379.926Q547.83 380.774 547.973 381.63Q548.116 382.487 548.216 383.349Q548.312 384.196 548.366 385.047Q548.42 385.898 548.433 386.751Q548.445 387.603 548.416 388.455Q548.387 389.307 548.317 390.157Q548.247 391.007 548.135 391.852Q548.023 392.697 547.87 393.536Q547.718 394.375 547.524 395.205Q547.331 396.036 547.097 396.856Q546.863 397.676 546.59 398.483Q546.317 399.291 546.004 400.084Q545.692 400.878 545.341 401.655Q544.99 402.432 544.602 403.191Q544.214 403.95 543.789 404.69Q543.365 405.429 542.904 406.147Q542.444 406.864 541.95 407.559Q541.455 408.253 540.927 408.923C534.744 416.673 525.92 420.71 516.21 421.837C507.27 422.533 498.395 420.198 491.253 414.713Q490.555 414.174 489.884 413.601Q489.214 413.028 488.573 412.423Q487.932 411.817 487.321 411.181Q486.711 410.544 486.133 409.878Q485.555 409.212 485.011 408.518Q484.466 407.824 483.957 407.104Q483.448 406.384 482.975 405.639Q482.502 404.895 482.067 404.128Q481.632 403.361 481.235 402.573Q480.839 401.785 480.482 400.979Q480.125 400.172 479.808 399.349Q479.491 398.526 479.216 397.688Q478.941 396.85 478.707 396Q478.474 395.149 478.283 394.289Q478.092 393.427 477.944 392.558Q477.796 391.689 477.691 390.813C476.571 381.797 478.761 372.76 484.414 365.58C490.639 357.674 499.718 353.303 509.599 352.199Z"/>
	<path fill="#0D1534" transform="scale(0.5246 0.5246)" d="M512.069 363.127C516.037 362.89 520.116 362.85 523.927 364.133C528.121 365.545 531.633 368.377 533.558 372.404C536.069 377.654 535.577 383.942 533.596 389.279C532.386 392.541 530.271 395.952 526.939 397.36C523.993 398.606 520.409 396.538 517.614 395.438C516.741 395.704 515.929 396.041 515.089 396.393C512.398 397.521 509.513 399.165 506.617 397.673C504.626 396.648 503.561 394.473 503.061 392.385C502.004 387.973 502.843 382.756 505.42 379.001C511.443 370.226 516.326 376.906 519.469 375.769C520.616 375.354 520.787 374.424 522.276 374.153L523.286 374.898C525.069 379.396 521.061 386.288 521.087 391.149C521.094 392.405 521.321 392.865 522.189 393.727C523.698 393.944 525.084 393.56 526.338 392.689C529.151 390.735 530.131 386.795 530.521 383.598C531.147 378.465 530.122 374.754 526.891 370.771Q524.648 369.229 522.081 368.323C516.661 366.381 510.161 367.158 505.144 369.861Q504.706 370.095 504.28 370.35Q503.854 370.606 503.441 370.882Q503.028 371.158 502.629 371.454Q502.23 371.749 501.846 372.065Q501.462 372.38 501.095 372.713Q500.727 373.047 500.375 373.398Q500.024 373.749 499.691 374.118Q499.357 374.486 499.042 374.87Q498.727 375.254 498.432 375.653Q498.136 376.052 497.86 376.465Q497.584 376.878 497.329 377.304Q497.074 377.73 496.84 378.168Q496.606 378.606 496.394 379.055Q496.182 379.504 495.992 379.963Q495.802 380.422 495.635 380.89Q495.468 381.358 495.324 381.833C493.642 387.496 494.114 393.304 497.064 398.457C504.887 412.126 511.59 401.766 518.508 404.113C519.313 404.386 519.241 404.634 519.588 405.323C519.469 405.797 519.401 406.204 519.118 406.631C518.192 408.028 516.026 408.91 514.476 409.302C509.596 410.535 503.473 409.501 499.215 406.85C494.601 403.977 491.86 399.275 490.714 394.05Q490.575 393.406 490.469 392.755Q490.362 392.105 490.287 391.45Q490.213 390.795 490.17 390.138Q490.128 389.48 490.119 388.821Q490.109 388.162 490.132 387.504Q490.154 386.845 490.21 386.188Q490.265 385.532 490.353 384.878Q490.44 384.225 490.56 383.577Q490.679 382.929 490.831 382.288Q490.982 381.646 491.165 381.013Q491.348 380.38 491.562 379.757Q491.776 379.133 492.02 378.521Q492.265 377.909 492.539 377.31Q492.813 376.711 493.117 376.126Q493.42 375.541 493.752 374.972Q494.084 374.402 494.444 373.85C498.698 367.451 504.794 364.543 512.069 363.127Z"/>
	<path fill="#FAF9F9" transform="scale(0.5246 0.5246)" d="M513.197 377.875C513.687 377.937 514.021 377.957 514.509 378.134C515.727 378.576 516.92 379.521 517.443 380.742C518.392 382.958 518.06 385.286 517.282 387.501C516.056 390.989 514.606 392.827 511.296 394.412C509.582 393.781 508.169 392.989 507.286 391.322C506.334 389.525 506.324 387.402 506.901 385.485C507.976 381.913 510.022 379.678 513.197 377.875Z"/>
	<path fill="#0D1534" transform="scale(0.5246 0.5246)" d="M720.16 660.763C725.633 660.658 741.302 659.603 745.586 662.298C746.718 663.01 747.205 664.472 747.454 665.735C748.303 670.053 748.822 678.345 746.337 682.088C741.615 684.847 710.595 683.456 702.719 683.432L702.732 701.262C709.229 701.042 732.909 699.76 737.79 702.198C738.974 702.789 739.376 703.826 739.692 705.045C740.645 708.713 740.941 719.187 739.072 722.385C733.709 725.391 710.311 723.645 703.167 723.574C701.664 724.957 703.432 753.346 702.463 758.214C702.204 759.519 701.949 760.606 700.747 761.319C697.154 763.451 684.163 762.729 680.221 761.237C678.885 760.731 678.208 760.277 677.751 758.878C677.043 756.713 677.184 677.155 677.576 669.691C677.715 667.059 678.051 664.398 679.211 662.008C681.317 660.05 714.598 660.993 720.16 660.763Z"/>
	<path fill="#5D8AA5" transform="scale(0.5246 0.5246)" d="M681.594 665.445L743.649 665.531L744.032 679.349Q721.482 679.446 698.933 679.202L698.743 705.437L735.978 705.455L736.076 712.368L736.004 719.495L698.504 719.487L698.205 757.898L681.728 758.009Q681.334 711.728 681.594 665.445Z"/>
	<path fill="#0D1534" transform="scale(0.5246 0.5246)" d="M755.685 661.145C763.278 660.706 770.821 660.399 778.302 661.989C783.747 668.714 792.656 687.298 797.496 695.783C802.723 685.695 809.648 670.112 816.818 661.785C822.908 660.443 830.029 660.496 836.228 660.93C838.31 661.075 841.368 661.119 842.813 662.794C842.439 669.846 822.756 699.824 818.202 707.299Q814.693 713.189 811.247 719.116C811.623 727.175 812.722 753.395 810.261 759.679C809.109 760.966 807.887 761.373 806.225 761.681C801.974 762.469 789.813 762.762 786.234 760.214C782.439 753.778 784.323 728.204 784.508 719.598Q775.647 703.957 766.166 688.684C762.122 682.122 757.603 675.554 754.177 668.648C753.399 667.081 752.789 665.779 752.836 664.013C753.493 662.496 754.356 661.999 755.685 661.145Z"/>
	<path fill="#5D8AA5" transform="scale(0.5246 0.5246)" d="M756.733 665.211C763.146 665.545 769.63 665.418 776.053 665.449C783.743 677.991 790.362 691.375 797.594 704.211C805.138 691.694 811.848 678.506 818.416 665.459C824.817 665.322 831.187 665.205 837.587 665.422C834.891 673.44 822.812 691.649 817.773 700.21Q812.82 708.563 807.509 716.694L807.261 757.879Q797.897 757.986 788.537 757.678C788.412 744.844 787.105 731.539 789 718.787C781.471 706.621 774.343 694.264 767.029 681.972C763.694 676.366 759.724 670.993 756.733 665.211Z"/>
	<path fill="#0D1534" transform="scale(0.5246 0.5246)" d="M368.903 661.142C376.138 660.707 383.401 660.281 390.487 662.046C391.958 668.129 391.685 675.146 391.867 681.382C392.427 700.557 391.992 719.83 391.914 739.013C398.49 739.047 434.013 737.601 437.226 740.693C439.341 744.811 439.011 752.746 438.622 757.358C438.405 759.921 437.92 761.446 435.962 763.145C423.337 763.546 410.592 763.184 397.956 763.163C389.461 763.15 380.441 763.75 372.003 762.833C370.347 762.653 368.756 762.52 367.451 761.391C365.441 758.214 366.016 751.037 366.013 747.277L366.167 693.504C366.206 684.4 365.445 674.455 366.74 665.469C367.013 663.57 367.558 662.488 368.903 661.142Z"/>
	<path fill="#5D8AA5" transform="scale(0.5246 0.5246)" d="M370.954 665.508L386.992 665.439Q387.463 687.374 387.4 709.313C387.348 717.948 386.647 726.955 387.433 735.545C387.668 738.112 388.098 740.68 389.625 742.803C397.316 745.542 424.201 743.536 433.912 743.526L433.94 758.322C427.996 759.264 420.83 758.547 414.767 758.555L370.955 758.499Q369.985 712.003 370.954 665.508Z"/>
	<path fill="#0D1534" transform="scale(0.5246 0.5246)" d="M645.22 660.729C648.784 660.586 652.499 660.522 656.052 660.833C657.817 660.988 659.248 661.198 660.404 662.604C661.726 669.259 661.495 676.347 661.598 683.117C661.814 697.326 661.47 711.545 661.49 725.757C661.503 735.611 662.621 748.244 661.639 757.704C661.53 758.751 661.225 759.762 660.561 760.603C659.116 762.435 656.656 762.292 654.542 762.459C650.393 762.541 641.212 763.628 638.076 760.79C636.768 759.606 636.623 757.125 636.516 755.449C636.22 750.829 636.5 746.092 636.473 741.456L636.53 705.569L636.549 680.858C636.509 675.733 636.167 670.449 636.544 665.341C636.628 664.212 636.763 662.978 637.608 662.147C639.4 660.383 642.863 660.798 645.22 660.729Z"/>
	<path fill="#5D8AA5" transform="scale(0.5246 0.5246)" d="M640.59 665.438L657.056 665.521C657.897 676.886 657.432 688.523 657.429 699.924L657.396 757.903L640.566 758.014L640.59 665.438Z"/>
	<path fill="#0D1534" transform="scale(0.5246 0.5246)" d="M397.445 239.33C398.413 239.682 398.109 239.452 398.809 240.148C399.487 240.821 399.269 240.992 399.267 241.889C396.136 247.651 387.586 253.106 382.399 257.308C381.75 257.206 381.282 256.827 380.726 256.493L380.496 255.304C383.346 249.105 392.156 243.509 397.445 239.33Z"/>
	<path fill="#0D1534" transform="scale(0.5246 0.5246)" d="M370.926 264.814C371.025 264.841 371.129 264.855 371.224 264.895C372.407 265.407 372.508 265.495 372.976 266.636C371.601 271.826 363.391 279.865 359.948 284.396C359.812 284.418 359.676 284.472 359.539 284.46C358.347 284.351 357.795 284.321 357.103 283.359C357.684 277.353 366.883 268.803 370.926 264.814Z"/>
	<path fill="#0D1534" transform="scale(0.5246 0.5246)" d="M415.165 387.71C421.229 387.489 431.831 385.894 437.181 388.645C438.066 389.886 437.949 389.916 437.8 391.454C431.354 391.519 421.649 393.527 415.868 390.84C414.895 389.544 415.094 389.277 415.165 387.71Z"/>
	<path fill="#0D1534" transform="scale(0.5246 0.5246)" d="M349.403 293.341C349.547 293.431 349.698 293.51 349.835 293.61C350.467 294.07 351.122 294.368 351.194 295.197C351.595 299.808 344.082 311.211 341.433 315.229C340.173 314.848 340.157 314.913 339.464 313.808C339.295 307.625 345.901 298.154 349.403 293.341Z"/>
	<path fill="#0D1534" transform="scale(0.5246 0.5246)" d="M427.524 220.469C428.397 221.019 428.745 221.282 429.15 222.242C427.616 226.944 415.463 232.208 411.215 234.579C410.485 234.494 410.86 234.59 410.102 234.247C409.684 233.462 409.286 233.221 409.645 232.277C411.077 228.516 423.804 222.466 427.524 220.469Z"/>
	<path fill="#0D1534" transform="scale(0.5246 0.5246)" d="M673.079 473.809C673.625 474.067 674.126 474.507 674.615 474.862C674.837 475.443 674.898 475.495 674.942 476.201C675.203 480.38 666.582 490.618 663.89 494.119C663.688 494.069 663.469 494.065 663.285 493.97C662.763 493.7 662.218 493.175 662.165 492.575C661.807 488.524 670.552 477.217 673.079 473.809Z"/>
	<path fill="#0D1534" transform="scale(0.5246 0.5246)" d="M652.918 502.262C654.152 503.094 654.39 503.048 654.772 504.459C653.131 510.333 646.291 515.908 642.04 520.182C641.268 520.089 641.562 520.199 640.868 519.805C640.133 519.388 640.275 519.113 640.071 518.339C641.9 512.55 648.702 506.617 652.918 502.262Z"/>
	<path fill="#0D1534" transform="scale(0.5246 0.5246)" d="M455.617 387.235C459.648 387.121 467.423 386.115 470.6 388.806L470.648 390.075C469.733 391.334 469.681 391.182 468.125 391.462C465.048 391.691 461.379 392.291 458.379 391.62C458.158 391.57 457.941 391.508 457.721 391.457C456.727 391.224 455.561 391.053 454.634 390.615C453.574 390.115 453.133 389.608 452.719 388.545C453.753 387.511 454.22 387.541 455.617 387.235Z"/>
	<path fill="#0D1534" transform="scale(0.5246 0.5246)" d="M562.762 387.608C567.363 387.262 572.7 386.724 577.259 387.375C578.887 387.608 579.738 387.906 580.713 389.231L580.224 390.898C576.575 391.415 566.968 392.598 563.97 390.52C562.812 389.717 562.933 388.885 562.762 387.608Z"/>
	<path fill="#0D1534" transform="scale(0.5246 0.5246)" d="M628.787 527.355C628.84 527.366 628.894 527.369 628.944 527.388C630.074 527.829 630.145 527.903 630.698 528.945C629.653 533.087 622.692 537.202 619.355 539.505C618.318 538.593 618.138 538.62 617.949 537.275C619.761 533.154 625.249 530.013 628.787 527.355Z"/>
	<path fill="#0D1534" transform="scale(0.5246 0.5246)" d="M605.629 544.86C606.717 545.445 606.87 545.294 607.398 546.483C606.456 549.884 599.192 553.384 596.266 555.073C595.128 554.803 594.997 554.687 594.16 553.858L594.312 552.844C596.91 549.253 601.831 547.027 605.629 544.86Z"/>
</svg>
