<?xml version="1.0" encoding="UTF-8"?>
<svg version="1.1" xmlns="http://www.w3.org/2000/svg" width="827" height="302">
<path d="M0 0 C0.92039062 0.79277344 1.84078125 1.58554687 2.7890625 2.40234375 C3.68882812 3.16417969 4.58859375 3.92601563 5.515625 4.7109375 C32.25837553 28.01995118 46.69707887 60.39741705 49.7890625 95.40234375 C52.03699607 130.46146153 38.9206965 162.68744204 17.41796875 189.70703125 C16.88042969 190.26648438 16.34289062 190.8259375 15.7890625 191.40234375 C15.1290625 191.40234375 14.4690625 191.40234375 13.7890625 191.40234375 C13.5209375 192.00046875 13.2528125 192.59859375 12.9765625 193.21484375 C11.78988844 195.40082229 10.69307137 196.81566969 8.7890625 198.40234375 C8.1290625 198.40234375 7.4690625 198.40234375 6.7890625 198.40234375 C6.7890625 199.06234375 6.7890625 199.72234375 6.7890625 200.40234375 C4.4545489 202.37303705 2.11687223 204.21352469 -0.3359375 206.02734375 C-1.06151855 206.56568848 -1.78709961 207.1040332 -2.53466797 207.65869141 C-15.76558416 217.31711594 -30.09123798 224.40396983 -45.7734375 229.15234375 C-46.42094971 229.35110107 -47.06846191 229.5498584 -47.7355957 229.75463867 C-58.64110623 232.89298283 -69.65644864 233.76902614 -80.9609375 233.71484375 C-82.18522461 233.7099292 -83.40951172 233.70501465 -84.67089844 233.69995117 C-94.16877422 233.57762054 -103.01361 232.74434364 -112.2109375 230.40234375 C-112.85321289 230.24137207 -113.49548828 230.08040039 -114.15722656 229.91455078 C-136.36708021 224.17746452 -155.2135373 212.53362726 -172.2109375 197.40234375 C-172.91734375 196.79261719 -173.62375 196.18289062 -174.3515625 195.5546875 C-192.00702408 179.27160424 -203.38093867 155.67519983 -208.9609375 132.71484375 C-209.17194092 131.84778809 -209.38294434 130.98073242 -209.6003418 130.08740234 C-217.15205344 97.44491961 -210.35608134 62.43506212 -193.171875 33.9375 C-173.61655467 3.66960379 -144.06523441 -17.27685412 -109.046875 -25.63671875 C-71.18034851 -33.65478297 -30.01785998 -24.54949014 0 0 Z M-90.0859375 22.77734375 C-90.4571875 23.31359375 -90.8284375 23.84984375 -91.2109375 24.40234375 C-93.2109375 26.40234375 -93.2109375 26.40234375 -95.2109375 27.40234375 C-95.84435382 34.28352744 -95.84435382 34.28352744 -93.2109375 40.46484375 C-89.50842923 42.85604701 -86.59710177 43.59689136 -82.2109375 43.40234375 C-79.31328378 42.59802425 -79.31328378 42.59802425 -77.2109375 41.40234375 C-77.2109375 40.74234375 -77.2109375 40.08234375 -77.2109375 39.40234375 C-76.5509375 39.40234375 -75.8909375 39.40234375 -75.2109375 39.40234375 C-72.88500037 36.1186678 -73.05652545 33.26923964 -73.66015625 29.37109375 C-74.49060485 26.40268173 -76.05851988 24.55476137 -78.2109375 22.40234375 C-81.88166693 20.56697904 -86.74379644 20.32644031 -90.0859375 22.77734375 Z M-54.2109375 46.40234375 C-54.5409375 47.06234375 -54.8709375 47.72234375 -55.2109375 48.40234375 C-56.54170739 48.74576824 -57.87525729 49.07854249 -59.2109375 49.40234375 C-61.85612345 52.0475297 -61.63234021 53.5235565 -61.7734375 57.21484375 C-61.71695411 61.52467544 -61.71695411 61.52467544 -59.9609375 65.33984375 C-56.68640704 68.00797968 -53.77727656 68.73094313 -49.5859375 68.52734375 C-46.41887732 67.93182816 -44.93069074 67.21932546 -42.1484375 65.40234375 C-39.50003331 61.30158888 -39.20091146 58.15197035 -40.2109375 53.40234375 C-41.51497167 50.40119334 -42.52119886 49.59804876 -45.2109375 47.40234375 C-48.22303143 46.64680179 -51.11142161 46.41584927 -54.2109375 46.40234375 Z M-157.2109375 56.40234375 C-157.2109375 57.06234375 -157.2109375 57.72234375 -157.2109375 58.40234375 C-157.9740625 58.29921875 -158.7371875 58.19609375 -159.5234375 58.08984375 C-162.36782884 58.1164733 -162.36782884 58.1164733 -164.0234375 60.46484375 C-165.85998664 65.00788636 -165.94761948 68.60156559 -164.0859375 73.15234375 C-161.67388103 76.04681152 -159.77441547 77.16883214 -156.2109375 78.40234375 C-152.11290512 78.33168802 -149.99821174 78.02812584 -146.7734375 75.46484375 C-145.0096516 73.5679014 -145.0096516 73.5679014 -145.2109375 71.40234375 C-144.5509375 71.40234375 -143.8909375 71.40234375 -143.2109375 71.40234375 C-143.00871071 67.42521682 -142.88800934 64.37112823 -144.1484375 60.58984375 C-147.19259077 57.36119634 -152.91296048 54.25335524 -157.2109375 56.40234375 Z M-84.2109375 70.40234375 C-83.2109375 74.40234375 -83.2109375 74.40234375 -83.2109375 74.40234375 Z M-15.8359375 73.90234375 C-16.6196875 74.72734375 -17.4034375 75.55234375 -18.2109375 76.40234375 C-18.5409375 76.73234375 -18.8709375 77.06234375 -19.2109375 77.40234375 C-19.52091253 81.8453192 -19.21353537 85.39714802 -17.2109375 89.40234375 C-15.07821426 91.4228184 -13.04168947 92.6077467 -10.2109375 93.40234375 C-6.14373748 93.28116088 -3.1302138 92.01519461 0.2265625 89.77734375 C2.43467101 86.42101881 2.98052489 83.3991211 2.7890625 79.40234375 C1.01814354 74.81878879 -1.97010476 72.73912914 -6.2109375 70.40234375 C-10.95001558 70.40234375 -12.40616654 70.63589522 -15.8359375 73.90234375 Z M-132.2109375 75.40234375 C-132.8709375 76.06234375 -133.5309375 76.72234375 -134.2109375 77.40234375 C-131.7359375 77.89734375 -131.7359375 77.89734375 -129.2109375 78.40234375 C-130.2009375 77.41234375 -131.1909375 76.42234375 -132.2109375 75.40234375 Z M-126.2109375 79.40234375 C-125.5509375 80.06234375 -124.8909375 80.72234375 -124.2109375 81.40234375 C-124.2109375 80.74234375 -124.2109375 80.08234375 -124.2109375 79.40234375 C-124.8709375 79.40234375 -125.5309375 79.40234375 -126.2109375 79.40234375 Z M-92.8984375 81.58984375 C-94.03667969 81.99589844 -95.17492187 82.40195313 -96.34765625 82.8203125 C-99.73646094 84.692708 -100.15613921 85.775417 -101.2109375 89.40234375 C-101.8709375 90.39234375 -102.5309375 91.38234375 -103.2109375 92.40234375 C-103.5649061 94.81239012 -103.5649061 94.81239012 -103.5234375 97.40234375 C-103.54019531 98.26859375 -103.55695313 99.13484375 -103.57421875 100.02734375 C-103.13462401 102.90125345 -102.24087825 103.42893299 -100.2109375 105.40234375 C-100.0871875 106.2428125 -99.9634375 107.08328125 -99.8359375 107.94921875 C-99.5265625 109.16351563 -99.5265625 109.16351563 -99.2109375 110.40234375 C-96.95752518 111.83778706 -96.95752518 111.83778706 -94.2109375 112.65234375 C-89.23702446 114.37625679 -89.23702446 114.37625679 -88.2109375 115.40234375 C-83.41815233 115.27361192 -78.43546028 114.77863781 -74.2109375 112.40234375 C-73.8809375 111.41234375 -73.5509375 110.42234375 -73.2109375 109.40234375 C-72.2209375 109.07234375 -71.2309375 108.74234375 -70.2109375 108.40234375 C-67.57018263 102.72961106 -65.7667109 97.52537776 -67.9375 91.328125 C-70.39698474 85.91925816 -73.34059178 82.83751661 -78.7109375 80.15234375 C-83.9416189 78.58313933 -87.8567882 79.72150165 -92.8984375 81.58984375 Z M-42.2109375 119.40234375 C-44.49535346 122.82896769 -44.37616545 124.47897045 -43.75390625 128.46875 C-42.9494007 131.33371582 -41.56926077 132.65044646 -39.2109375 134.40234375 C-38.6334375 134.83546875 -38.0559375 135.26859375 -37.4609375 135.71484375 C-33.89244459 136.80521658 -30.69728508 136.56215839 -27.2109375 135.40234375 C-24.01215775 132.73669396 -22.57432345 131.2321367 -21.76953125 127.1796875 C-21.55782345 123.08894642 -21.88146882 120.92949365 -24.0859375 117.40234375 C-27.59715925 114.09766445 -30.27772404 114.00929139 -34.953125 114.046875 C-38.55344166 114.61370686 -40.06010271 116.59974084 -42.2109375 119.40234375 Z M-53.2109375 115.40234375 C-53.2109375 116.06234375 -53.2109375 116.72234375 -53.2109375 117.40234375 C-52.5509375 117.07234375 -51.8909375 116.74234375 -51.2109375 116.40234375 C-51.8709375 116.07234375 -52.5309375 115.74234375 -53.2109375 115.40234375 Z M-116.2109375 122.40234375 C-117.49102012 125.49011547 -117.49102012 125.49011547 -118.2109375 128.40234375 C-114.93320246 127.65084352 -114.93320246 127.65084352 -113.2109375 124.40234375 C-111.55145602 123.3904648 -109.88513188 122.38968915 -108.2109375 121.40234375 C-107.8809375 120.74234375 -107.5509375 120.08234375 -107.2109375 119.40234375 C-111.27526991 119.06364938 -113.3364822 119.4287693 -116.2109375 122.40234375 Z M-145.2109375 134.40234375 C-147.98282908 137.62131462 -148.2109375 139.09590105 -148.2109375 143.40234375 C-147.4379447 147.70669312 -145.84311931 149.85208844 -142.2109375 152.40234375 C-138.3524594 153.6573235 -135.2082134 153.8234158 -131.3984375 152.21484375 C-128.16350034 149.53446725 -126.58470373 147.54856019 -125.2734375 143.52734375 C-125.18864819 139.28787807 -126.50567871 137.60593968 -129.2109375 134.40234375 C-135.37741333 129.81701557 -139.17419399 129.41546867 -145.2109375 134.40234375 Z M-61.2109375 143.40234375 C-60.5509375 144.72234375 -59.8909375 146.04234375 -59.2109375 147.40234375 C-59.5409375 146.08234375 -59.8709375 144.76234375 -60.2109375 143.40234375 C-60.5409375 143.40234375 -60.8709375 143.40234375 -61.2109375 143.40234375 Z M-63.2109375 144.40234375 C-62.2109375 146.40234375 -62.2109375 146.40234375 -62.2109375 146.40234375 Z M-61.2109375 148.40234375 C-60.2109375 150.40234375 -60.2109375 150.40234375 -60.2109375 150.40234375 Z M-58.2109375 148.40234375 C-57.2109375 150.40234375 -57.2109375 150.40234375 -57.2109375 150.40234375 Z M-59.2109375 152.40234375 C-58.2109375 154.40234375 -58.2109375 154.40234375 -58.2109375 154.40234375 Z M-55.2109375 160.40234375 C-54.2109375 162.40234375 -54.2109375 162.40234375 -54.2109375 162.40234375 Z M-54.2109375 162.40234375 C-53.2109375 164.40234375 -53.2109375 164.40234375 -53.2109375 164.40234375 Z M-51.2109375 163.40234375 C-53.88204023 166.34495967 -55.98140658 169.58249144 -56.484375 173.5703125 C-56.21623045 177.33139262 -55.43340808 179.17987317 -52.7734375 181.83984375 C-48.56244222 184.4075238 -46.33611936 184.65438335 -41.4765625 184.02734375 C-38.86979071 183.47672924 -38.86979071 183.47672924 -36.1484375 180.83984375 C-33.85724605 176.77482666 -33.05164829 173.95798806 -34.2109375 169.40234375 C-35.98091642 166.38947523 -38.03551373 163.99005564 -41.2109375 162.40234375 C-44.88423714 162.26876922 -47.70946709 162.23518695 -51.2109375 163.40234375 Z " fill="#FC8A41" transform="translate(261.2109375,48.59765625)"/>
<path d="M0 0 C7.86069045 -0.3373888 15.69474542 -0.65721424 23.55640411 -0.82800293 C27.21747414 -0.91199674 30.8724695 -1.02377664 34.5300293 -1.20703125 C60.09859076 -2.45540238 60.09859076 -2.45540238 66.74853516 3.4921875 C69.67344244 6.77776952 71.91149005 10.30571248 73.96377563 14.18603516 C75.29725856 16.52036663 76.98447292 18.23796743 79 20 C79.25136719 19.44054687 79.50273438 18.88109375 79.76171875 18.3046875 C81.71610801 14.66718067 84.37431204 11.65301259 87.00390625 8.484375 C88.96555346 6.15070531 88.96555346 6.15070531 90.21484375 4.015625 C91.25 2.375 91.25 2.375 94 0 C98.04861025 -0.48945091 101.94401811 -0.34931901 106 0 C104.41448574 4.94756858 101.50350059 8.56916197 98.375 12.625 C97.84028076 13.34010742 97.30556152 14.05521484 96.75463867 14.79199219 C94.4192357 17.90773329 92.08616063 20.90521004 89.46484375 23.7890625 C82.16069634 32.14044702 82.83418383 41.41885566 83 52 C79.37 52 75.74 52 72 52 C72.04382813 50.63488281 72.08765625 49.26976562 72.1328125 47.86328125 C72.23354748 35.6250999 71.04919114 28.62148016 62.48632812 19.64794922 C59.68039329 16.53690123 57.31202673 13.08943276 54.875 9.6875 C53.93586364 8.39903361 52.99584725 7.1112079 52.0546875 5.82421875 C51.03761719 4.42623047 51.03761719 4.42623047 50 3 C49.34 5.31 48.68 7.62 48 10 C35.79 10 23.58 10 11 10 C11 13.3 11 16.6 11 20 C20.9 20 30.8 20 41 20 C41 23.63 41 27.26 41 31 C31.1 31 21.2 31 11 31 C11 37.93 11 44.86 11 52 C7.37 52 3.74 52 0 52 C0 34.84 0 17.68 0 0 Z " fill="#010101" transform="translate(657,126)"/>
<path d="M0 0 C0.80448578 -0.0159874 1.60897156 -0.03197479 2.43783569 -0.04844666 C3.73631943 -0.05649071 3.73631943 -0.05649071 5.06103516 -0.06469727 C6.4019371 -0.07823997 6.4019371 -0.07823997 7.76992798 -0.09205627 C9.66120045 -0.10656328 11.55252316 -0.11544663 13.44384766 -0.11914062 C16.33273212 -0.13103203 19.2194769 -0.18020719 22.10791016 -0.23071289 C23.94644141 -0.24017788 25.78498577 -0.24741255 27.62353516 -0.25219727 C28.9159462 -0.28149574 28.9159462 -0.28149574 30.23446655 -0.31138611 C34.65863263 -0.27822231 36.41977758 -0.1299998 40.01098633 2.69213867 C42.11003082 5.48599428 42.68225063 6.86929713 42.97509766 10.30639648 C43.13171875 11.89387695 43.13171875 11.89387695 43.29150391 13.51342773 C45.08647206 39.81113582 45.08647206 39.81113582 42.97509766 51.30639648 C41.97509766 52.30639648 41.97509766 52.30639648 39.68994141 52.40405273 C37.11832682 52.37150065 34.54671224 52.33894857 31.97509766 52.30639648 C31.97509766 46.69639648 31.97509766 41.08639648 31.97509766 35.30639648 C21.74509766 35.30639648 11.51509766 35.30639648 0.97509766 35.30639648 C0.97509766 40.91639648 0.97509766 46.52639648 0.97509766 52.30639648 C-2.65490234 52.30639648 -6.28490234 52.30639648 -10.02490234 52.30639648 C-10.09913175 45.98928389 -10.15354248 39.67242594 -10.18969727 33.35498047 C-10.20477149 31.20649797 -10.22523423 29.05804619 -10.2512207 26.90966797 C-10.28766348 23.8191774 -10.30464253 20.72909418 -10.31787109 17.63842773 C-10.33335495 16.67991409 -10.34883881 15.72140045 -10.36479187 14.73384094 C-10.3660339 9.79760995 -10.35257261 6.25219476 -7.02490234 2.30639648 C-4.00701425 0.29447109 -3.3875731 0.05100792 0 0 Z M0.97509766 10.30639648 C0.97509766 14.92639648 0.97509766 19.54639648 0.97509766 24.30639648 C11.20509766 24.30639648 21.43509766 24.30639648 31.97509766 24.30639648 C31.97509766 19.68639648 31.97509766 15.06639648 31.97509766 10.30639648 C21.74509766 10.30639648 11.51509766 10.30639648 0.97509766 10.30639648 Z " fill="#010101" transform="translate(533.02490234375,125.693603515625)"/>
<path d="M0 0 C15.84 0 31.68 0 48 0 C48 3.3 48 6.6 48 10 C35.46 10 22.92 10 10 10 C10 13.3 10 16.6 10 20 C10.90355225 19.99476318 11.80710449 19.98952637 12.73803711 19.98413086 C16.07951489 19.96712314 19.42094692 19.95456667 22.76245117 19.94506836 C24.21070073 19.94002899 25.65894517 19.93319747 27.10717773 19.92456055 C29.18474588 19.91247753 31.26224697 19.90676789 33.33984375 19.90234375 C34.59144287 19.89710693 35.84304199 19.89187012 37.13256836 19.88647461 C40 20 40 20 41 21 C41.0979057 22.49738124 41.12974864 23.99942892 41.125 25.5 C41.12886719 26.72203125 41.12886719 26.72203125 41.1328125 27.96875 C41 30 41 30 40 31 C37.78144736 31.08783542 35.56011504 31.10694609 33.33984375 31.09765625 C32.34314415 31.09553383 32.34314415 31.09553383 31.3263092 31.09336853 C29.19666101 31.08775518 27.06711661 31.07520054 24.9375 31.0625 C23.49674631 31.05748671 22.05599097 31.05292351 20.61523438 31.04882812 C17.07678898 31.03778145 13.53840461 31.02050792 10 31 C10 34.3 10 37.6 10 41 C22.54 41 35.08 41 48 41 C48 44.63 48 48.26 48 52 C32.16 52 16.32 52 0 52 C0 34.84 0 17.68 0 0 Z " fill="#010101" transform="translate(354,126)"/>
<path d="M0 0 C12 0 12 0 15.69921875 2.89453125 C16.73211982 4.17160874 17.72763968 5.47965352 18.6875 6.8125 C19.49392944 7.8344043 19.49392944 7.8344043 20.31665039 8.87695312 C21.39859777 10.25218685 22.46595256 11.63904069 23.51757812 13.03759766 C25.57635582 15.76296905 27.75417675 18.37341818 29.9375 21 C30.63617188 21.86238281 31.33484375 22.72476563 32.0546875 23.61328125 C34.64633848 26.79299761 37.31352372 29.90021967 40 33 C40.93087909 29.06711636 41.11608885 25.42345837 41.09765625 21.38671875 C41.09443359 20.13955078 41.09121094 18.89238281 41.08789062 17.60742188 C41.07951172 16.31384766 41.07113281 15.02027344 41.0625 13.6875 C41.05798828 12.37458984 41.05347656 11.06167969 41.04882812 9.70898438 C41.03705949 6.4726099 41.0206176 3.23632822 41 0 C44.63 0 48.26 0 52 0 C52 17.16 52 34.32 52 52 C41 52 41 52 38.0546875 49.98046875 C37.33539063 49.05878906 36.61609375 48.13710937 35.875 47.1875 C34.64910156 45.67542969 34.64910156 45.67542969 33.3984375 44.1328125 C32.60695313 43.09898437 31.81546875 42.06515625 31 41 C29.50347598 39.18462894 28.00356012 37.37204779 26.5 35.5625 C25.015 33.726875 23.53 31.89125 22 30 C18.7 26.04 15.4 22.08 12 18 C11.67 29.22 11.34 40.44 11 52 C7.37 52 3.74 52 0 52 C0 34.84 0 17.68 0 0 Z " fill="#010101" transform="translate(408,126)"/>
<path d="M0 0 C17.49 0 34.98 0 53 0 C53 11 53 11 50.32421875 14.3828125 C49.13828827 15.33075973 47.92408976 16.24415902 46.6875 17.125 C46.05175049 17.62161133 45.41600098 18.11822266 44.76098633 18.62988281 C43.46962237 19.63630855 42.16776097 20.62941796 40.85546875 21.60839844 C38.23274427 23.5754418 35.71391779 25.66139893 33.1875 27.75 C32.39730469 28.38421875 31.60710938 29.0184375 30.79296875 29.671875 C26.77915703 33.01765372 22.90552085 36.52842591 19 40 C30.22 40.33 41.44 40.66 53 41 C53 44.3 53 47.6 53 51 C51.35912255 52.64087745 49.48168938 52.12739755 47.22070312 52.12939453 C45.69407043 52.13412277 45.69407043 52.13412277 44.13659668 52.13894653 C43.02933228 52.1369223 41.92206787 52.13489807 40.78125 52.1328125 C39.65303833 52.13376923 38.52482666 52.13472595 37.36242676 52.13571167 C34.97159774 52.13639368 32.58076689 52.13453797 30.18994141 52.13037109 C26.51590849 52.12502316 22.84199783 52.13031543 19.16796875 52.13671875 C16.85156223 52.13605797 14.53515578 52.13477682 12.21875 52.1328125 C11.1114856 52.13483673 10.00422119 52.13686096 8.86340332 52.13894653 C7.84564819 52.13579437 6.82789307 52.13264221 5.77929688 52.12939453 C4.87852417 52.12859894 3.97775146 52.12780334 3.04968262 52.12698364 C1 52 1 52 0 51 C-1.06866693 47.41018221 -1.04555171 44.59764839 0 41 C3.84137378 36.39859981 8.32398605 32.72466378 13 29 C13.88042969 28.278125 14.76085937 27.55625 15.66796875 26.8125 C18.09252292 24.85070739 20.54653042 22.92550777 23 21 C26.96 17.7 30.92 14.4 35 11 C23.45 10.67 11.9 10.34 0 10 C0 6.7 0 3.4 0 0 Z " fill="#000000" transform="translate(582,126)"/>
<path d="M0 0 C3.63 0 7.26 0 11 0 C11 13.53 11 27.06 11 41 C24.86 41 38.72 41 53 41 C53 44.63 53 48.26 53 52 C35.51 52 18.02 52 0 52 C0 34.84 0 17.68 0 0 Z " fill="#010101" transform="translate(467,126)"/>
<path d="M0 0 C3.63 0 7.26 0 11 0 C11 17.16 11 34.32 11 52 C7.7 52 4.4 52 1 52 C0 51 0 51 -0.12025452 48.94358826 C-0.11803391 48.03979935 -0.11581329 47.13601044 -0.11352539 46.20483398 C-0.11344986 45.18385117 -0.11337433 44.16286835 -0.11329651 43.11094666 C-0.10813522 42.0005452 -0.10297394 40.89014374 -0.09765625 39.74609375 C-0.0962413 38.61551041 -0.09482635 37.48492706 -0.09336853 36.32008362 C-0.08775019 32.69252935 -0.07519458 29.06503576 -0.0625 25.4375 C-0.05748736 22.98502693 -0.05292405 20.5325529 -0.04882812 18.08007812 C-0.0377748 12.05336187 -0.02049788 6.02669124 0 0 Z " fill="#010101" transform="translate(641,126)"/>
<path d="M0 0 C2.475 1.485 2.475 1.485 5 3 C4.814375 3.61875 4.62875 4.2375 4.4375 4.875 C3.76313824 7.04160178 3.76313824 7.04160178 5 9 C3.75 12.0625 3.75 12.0625 2 15 C1.01 15.33 0.02 15.66 -1 16 C-1.33 16.66 -1.66 17.32 -2 18 C-1.34 18 -0.68 18 0 18 C-0.33 18.66 -0.66 19.32 -1 20 C-2.32 20 -3.64 20 -5 20 C-5 21.32 -5 22.64 -5 24 C-6.32 23.67 -7.64 23.34 -9 23 C-9.33 24.32 -9.66 25.64 -10 27 C-10.99 27 -11.98 27 -13 27 C-13.66 26.34 -14.32 25.68 -15 25 C-17.10820797 25.3185177 -17.10820797 25.3185177 -19 26 C-19 25.34 -19 24.68 -19 24 C-17.948125 23.71125 -16.89625 23.4225 -15.8125 23.125 C-9.81842484 21.35625651 -6.54556957 20.37948487 -3 15 C-0.90021158 10.13733209 -0.44126402 5.22549495 0 0 Z " fill="#EC914A" transform="translate(194,140)"/>
<path d="M0 0 C-1.65 0.33 -3.3 0.66 -5 1 C-5 2.98 -5 4.96 -5 7 C-4.67 7 -4.34 7 -4 7 C-4.01160156 7.77085938 -4.02320313 8.54171875 -4.03515625 9.3359375 C-4.04417969 10.33882812 -4.05320313 11.34171875 -4.0625 12.375 C-4.07410156 13.37273437 -4.08570313 14.37046875 -4.09765625 15.3984375 C-4.18006602 17.98432453 -4.18006602 17.98432453 -3 20 C-3.66 20 -4.32 20 -5 20 C-4.814375 20.928125 -4.62875 21.85625 -4.4375 22.8125 C-4 26 -4 26 -5 29 C-5.66 29 -6.32 29 -7 29 C-8.12862175 23.63904667 -8.09688221 18.44693314 -8 13 C-8.33 13 -8.66 13 -9 13 C-9 10.03 -9 7.06 -9 4 C-8.34 3.67 -7.68 3.34 -7 3 C-6.67 2.01 -6.34 1.02 -6 0 C-3 -1 -3 -1 0 0 Z " fill="#FD8850" transform="translate(182,92)"/>
<path d="M0 0 C2 3.75 2 3.75 2 6 C2.66 6.66 3.32 7.32 4 8 C3.67 8.66 3.34 9.32 3 10 C4.65 10.33 6.3 10.66 8 11 C8.33 10.34 8.66 9.68 9 9 C9.66 11.31 10.32 13.62 11 16 C10.07380859 15.44119141 10.07380859 15.44119141 9.12890625 14.87109375 C2.78737804 11.32871802 -0.87830998 10.50674241 -8 12 C-8 11.34 -8 10.68 -8 10 C-6.35 9.67 -4.7 9.34 -3 9 C-3 7.68 -3 6.36 -3 5 C-2.34 5 -1.68 5 -1 5 C-0.67 3.35 -0.34 1.7 0 0 Z " fill="#EE9147" transform="translate(179,118)"/>
<path d="M0 0 C0.99 0 1.98 0 3 0 C3.33 0.99 3.66 1.98 4 3 C3.525625 3.680625 3.05125 4.36125 2.5625 5.0625 C0.35681596 9.20918599 0.20153278 13.38141511 1 18 C2.48689594 19.65397519 2.48689594 19.65397519 4 21 C3.6875 23.1875 3.6875 23.1875 3 25 C2.67 24.01 2.34 23.02 2 22 C1.4946875 21.53464844 0.989375 21.06929687 0.46875 20.58984375 C-1.42661485 18.53821211 -1.38855793 17.31604772 -1.5 14.5625 C-1.78758437 10.79330917 -2.38165933 8.84602246 -5 6 C-5 5.34 -5 4.68 -5 4 C-2.525 4.495 -2.525 4.495 0 5 C0 3.35 0 1.7 0 0 Z " fill="#F18F4D" transform="translate(158,133)"/>
<path d="M0 0 C2.27482074 3.41223111 3.63264025 6.93704068 5.0625 10.75 C5.33126953 11.4409375 5.60003906 12.131875 5.87695312 12.84375 C7.53729999 17.24925888 8.50345618 21.31654967 9 26 C6.27136433 23.27136433 5.52914606 20.08993105 4.375 16.5 C4.14554687 15.81035156 3.91609375 15.12070313 3.6796875 14.41015625 C2 9.28111049 2 9.28111049 2 7 C1.01 7.33 0.02 7.66 -1 8 C-0.67 5.36 -0.34 2.72 0 0 Z " fill="#E98E55" transform="translate(298,96)"/>
<path d="M0 0 C0 0.99 0 1.98 0 3 C-3.3 2.67 -6.6 2.34 -10 2 C-10.33 3.32 -10.66 4.64 -11 6 C-12.98 6 -14.96 6 -17 6 C-10.94677754 -0.3895126 -8.51291341 -1.4188189 0 0 Z " fill="#F38B54" transform="translate(127,121)"/>
<path d="M0 0 C0.66 0 1.32 0 2 0 C0.62712658 3.69876091 -1.06355453 6.9514476 -3.125 10.3125 C-3.66382813 11.19550781 -4.20265625 12.07851562 -4.7578125 12.98828125 C-5.37269531 13.98408203 -5.37269531 13.98408203 -6 15 C-6.33 14.01 -6.66 13.02 -7 12 C-6.67 11.34 -6.34 10.68 -6 10 C-5.34 10 -4.68 10 -4 10 C-4.226875 9.236875 -4.45375 8.47375 -4.6875 7.6875 C-5 5 -5 5 -3.6875 3.1875 C-2 2 -2 2 0 2 C0 1.34 0 0.68 0 0 Z " fill="#E98B4D" transform="translate(295,209)"/>
<path d="M0 0 C0.680625 0.61875 1.36125 1.2375 2.0625 1.875 C5.45881234 4.3319068 7.96018821 5.04945605 12 6 C12 6.33 12 6.66 12 7 C10.02 7 8.04 7 6 7 C6 7.66 6 8.32 6 9 C3 8 3 8 0 6 C-0.1875 2.875 -0.1875 2.875 0 0 Z " fill="#EF8B4F" transform="translate(114,196)"/>
<path d="M0 0 C3 3.75 3 3.75 3 6 C3.66 6 4.32 6 5 6 C5 7.32 5 8.64 5 10 C5.66 10 6.32 10 7 10 C7 10.99 7 11.98 7 13 C7.66 13 8.32 13 9 13 C9 14.65 9 16.3 9 18 C4.72776184 13.25306871 0 6.56573109 0 0 Z " fill="#E68E58" transform="translate(60,202)"/>
<path d="M0 0 C0.94242239 2.54454045 1.01279315 3.94029864 0.4375 6.625 C-1 9 -1 9 -3.8125 10.25 C-6.53567787 10.89074773 -9.24502983 11.51382879 -12 12 C-12.33 11.34 -12.66 10.68 -13 10 C-12.07767578 9.74476563 -12.07767578 9.74476563 -11.13671875 9.484375 C-6.11319162 8.05226004 -6.11319162 8.05226004 -2 5 C-0.88214887 2.88214887 -0.88214887 2.88214887 0 0 Z " fill="#E58D56" transform="translate(239,175)"/>
<path d="M0 0 C2.2102955 1.02620862 4.07317497 2.05716794 6 3.5625 C7.88454871 5.14920214 7.88454871 5.14920214 10.125 5.3125 C10.74375 5.539375 11.3625 5.76625 12 6 C13.25 9.0625 13.25 9.0625 14 12 C9.21586287 8.46653832 4.47785614 4.91812412 0 1 C0 0.67 0 0.34 0 0 Z " fill="#EA8D53" transform="translate(89,245)"/>
<path d="M0 0 C1.98 0.66 3.96 1.32 6 2 C5.34 2.66 4.68 3.32 4 4 C5.32 4 6.64 4 8 4 C8 4.66 8 5.32 8 6 C6.35 6 4.7 6 3 6 C2.67 6.66 2.34 7.32 2 8 C0.68 7.01 -0.64 6.02 -2 5 C-1.34 5 -0.68 5 0 5 C0 3.35 0 1.7 0 0 Z " fill="#F68958" transform="translate(130,176)"/>
<path d="M0 0 C2 1 2 1 2.8125 2.625 C3.10101195 6.27948467 1.57703229 8.71977284 0 12 C-1.76462683 8.91190305 -2 7.76687864 -2 4 C-1 1.75 -1 1.75 0 0 Z " fill="#F38B4B" transform="translate(300,192)"/>
<path d="M0 0 C0.99 0.33 1.98 0.66 3 1 C3.33 1.99 3.66 2.98 4 4 C3.01 4.33 2.02 4.66 1 5 C1.639375 5.268125 2.27875 5.53625 2.9375 5.8125 C5 7 5 7 6 10 C5.01 10.33 4.02 10.66 3 11 C3 9.68 3 8.36 3 7 C1.68 6.67 0.36 6.34 -1 6 C-1.33 4.35 -1.66 2.7 -2 1 C-1.34 0.67 -0.68 0.34 0 0 Z " fill="#FB9A4C" transform="translate(186,166)"/>
<path d="M0 0 C1.46313772 0.76167457 2.92036661 1.53470707 4.375 2.3125 C5.18710938 2.74175781 5.99921875 3.17101563 6.8359375 3.61328125 C9 5 9 5 11 8 C7.82908279 7.29535173 4.88231132 6.51700596 2 5 C0.6875 2.375 0.6875 2.375 0 0 Z " fill="#E98D55" transform="translate(248,40)"/>
<path d="M0 0 C1.32 0 2.64 0 4 0 C4.66 1.65 5.32 3.3 6 5 C6.66 5 7.32 5 8 5 C8 5.66 8 6.32 8 7 C2.25 5.25 2.25 5.25 0 3 C0 2.01 0 1.02 0 0 Z " fill="#F28B4D" transform="translate(120,264)"/>
<path d="M0 0 C0.94875 0.04125 1.8975 0.0825 2.875 0.125 C-0.14387244 3.60831435 -2.69409529 4.91657144 -7.125 6.125 C-4.34782609 0.17391304 -4.34782609 0.17391304 0 0 Z " fill="#EA8E4D" transform="translate(247.125,260.875)"/>
<path d="M0 0 C0.598125 0.495 1.19625 0.99 1.8125 1.5 C3.97029994 3.28276418 3.97029994 3.28276418 7 3 C7 3.66 7 4.32 7 5 C3.71303767 5.79953138 2.28976808 6.09658936 -1 5 C-1.33 4.01 -1.66 3.02 -2 2 C-1.34 1.34 -0.68 0.68 0 0 Z " fill="#FB874E" transform="translate(154,160)"/>
<path d="M0 0 C0.66 0 1.32 0 2 0 C2.41713515 1.43146378 2.8080497 2.87058886 3.1875 4.3125 C3.40792969 5.11300781 3.62835938 5.91351563 3.85546875 6.73828125 C4 9 4 9 2.55078125 10.79296875 C2.03902344 11.19128906 1.52726563 11.58960938 1 12 C0.67 11.01 0.34 10.02 0 9 C0.66 9 1.32 9 2 9 C1.67 7.35 1.34 5.7 1 4 C0.34 4 -0.32 4 -1 4 C-0.67 2.68 -0.34 1.36 0 0 Z " fill="#FF9B50" transform="translate(206,205)"/>
<path d="M0 0 C1.98 0 3.96 0 6 0 C7.32286246 4.96073422 7.08893197 9.91111512 7 15 C6.67 15 6.34 15 6 15 C5.85304688 13.87851563 5.85304688 13.87851563 5.703125 12.734375 C4.8757578 6.58820798 4.8757578 6.58820798 1.875 1.3125 C1.25625 0.879375 0.6375 0.44625 0 0 Z " fill="#E79051" transform="translate(112,105)"/>
<path d="M0 0 C0.33 1.32 0.66 2.64 1 4 C-0.49739583 5.20442708 -1.99479167 6.40885417 -3.4921875 7.61328125 C-5.25292107 9.12270545 -5.25292107 9.12270545 -7 12 C-7.66 11.67 -8.32 11.34 -9 11 C-6.03 7.37 -3.06 3.74 0 0 Z " fill="#E59353" transform="translate(83,63)"/>
<path d="M0 0 C0 0.66 0 1.32 0 2 C1.32 2.33 2.64 2.66 4 3 C2.41590006 2.88512252 0.83271037 2.75765492 -0.75 2.625 C-1.63171875 2.55539062 -2.5134375 2.48578125 -3.421875 2.4140625 C-5.99066382 2.00149945 -7.75841015 1.28839043 -10 0 C-6.33694766 -0.74926071 -3.57644848 -1.2380014 0 0 Z " fill="#EF8B50" transform="translate(155,277)"/>
<path d="M0 0 C0.78375 0.185625 1.5675 0.37125 2.375 0.5625 C4.97089775 1.25962266 4.97089775 1.25962266 7 0 C6.67 1.98 6.34 3.96 6 6 C4 5 2 4 0 3 C0 2.01 0 1.02 0 0 Z " fill="#FEAB2C" transform="translate(207,161)"/>
<path d="M0 0 C1.051875 0.185625 2.10375 0.37125 3.1875 0.5625 C6.57119882 0.95079331 8.76425888 0.88247485 12 0 C10.9375 1.5 10.9375 1.5 9 3 C5.3125 3.1875 5.3125 3.1875 2 3 C1.67 3.66 1.34 4.32 1 5 C0.67 3.35 0.34 1.7 0 0 Z " fill="#FEA131" transform="translate(199,140)"/>
<path d="M0 0 C1.35439668 2.70879335 1.06501451 5.00933268 1 8 C-0.65 8.33 -2.3 8.66 -4 9 C-2.94124926 5.59687262 -1.99097846 2.98646769 0 0 Z M1 3 C1.66 3.66 2.32 4.32 3 5 C2.34 5 1.68 5 1 5 C1 4.34 1 3.68 1 3 Z " fill="#EF8D4D" transform="translate(67,85)"/>
<path d="M0 0 C1.2065625 0.0309375 1.2065625 0.0309375 2.4375 0.0625 C2.4375 0.7225 2.4375 1.3825 2.4375 2.0625 C-0.98482972 3.20327657 -3.64923217 3.16065117 -7.25 3.125 C-9.01923828 3.11146484 -9.01923828 3.11146484 -10.82421875 3.09765625 C-11.72785156 3.08605469 -12.63148438 3.07445312 -13.5625 3.0625 C-13.5625 2.7325 -13.5625 2.4025 -13.5625 2.0625 C-12.85222656 2.00191406 -12.14195312 1.94132812 -11.41015625 1.87890625 C-10.03150391 1.75322266 -10.03150391 1.75322266 -8.625 1.625 C-7.70847656 1.54378906 -6.79195312 1.46257812 -5.84765625 1.37890625 C-3.0392385 0.99004841 -2.92897185 0.07143834 0 0 Z " fill="#F48A4C" transform="translate(173.5625,277.9375)"/>
<path d="M0 0 C0.66 0 1.32 0 2 0 C1.67 1.98 1.34 3.96 1 6 C-1.31 6.33 -3.62 6.66 -6 7 C-4.71937515 5.2925002 -3.38232443 3.62626404 -2 2 C-1.34 2 -0.68 2 0 2 C0 1.34 0 0.68 0 0 Z " fill="#F28848" transform="translate(184,88)"/>
<path d="M0 0 C1 3 1 3 1 5 C-1.66666667 5.66666667 -4.33333333 6.33333333 -7 7 C-7 6.34 -7 5.68 -7 5 C-6.01 5 -5.02 5 -4 5 C-4 3.68 -4 2.36 -4 1 C-2.68 0.67 -1.36 0.34 0 0 Z " fill="#FEB130" transform="translate(141,174)"/>
<path d="M0 0 C0.33 0.66 0.66 1.32 1 2 C3.31 2 5.62 2 8 2 C7.67 2.99 7.34 3.98 7 5 C4.69 5 2.38 5 0 5 C0 3.35 0 1.7 0 0 Z " fill="#F28E51" transform="translate(206,90)"/>
<path d="M0 0 C1.65 0 3.3 0 5 0 C5.33 1.98 5.66 3.96 6 6 C5.34 6 4.68 6 4 6 C4 5.34 4 4.68 4 4 C2.68 4 1.36 4 0 4 C0 2.68 0 1.36 0 0 Z " fill="#EF853A" transform="translate(185,163)"/>
<path d="M0 0 C1.12894876 0.93274109 2.25300876 1.87140122 3.375 2.8125 C4.00148438 3.33457031 4.62796875 3.85664062 5.2734375 4.39453125 C7 6 7 6 9 9 C8.443125 8.71125 7.88625 8.4225 7.3125 8.125 C4.91505355 6.9586747 2.48403061 5.9660119 0 5 C0 3.35 0 1.7 0 0 Z " fill="#E68B56" transform="translate(268,55)"/>
<path d="M0 0 C0.66 0.33 1.32 0.66 2 1 C2.625 4.0625 2.625 4.0625 3 7 C0.36 5.68 -2.28 4.36 -5 3 C-4.34 2.34 -3.68 1.68 -3 1 C-2.01 1.33 -1.02 1.66 0 2 C0 1.34 0 0.68 0 0 Z " fill="#FA9053" transform="translate(187,127)"/>
<path d="M0 0 C0.66 0.33 1.32 0.66 2 1 C2.4140625 3.28515625 2.4140625 3.28515625 2.625 6.0625 C2.69976562 6.98160156 2.77453125 7.90070313 2.8515625 8.84765625 C2.92503906 9.91306641 2.92503906 9.91306641 3 11 C1.68 11.33 0.36 11.66 -1 12 C-0.9278125 11.38511719 -0.855625 10.77023438 -0.78125 10.13671875 C-0.64203125 8.92435547 -0.64203125 8.92435547 -0.5 7.6875 C-0.4071875 6.88699219 -0.314375 6.08648437 -0.21875 5.26171875 C0.04813463 2.88103445 0.04813463 2.88103445 0 0 Z " fill="#EC8D51" transform="translate(187,76)"/>
<path d="M0 0 C0.99 1.32 1.98 2.64 3 4 C2.01 4.99 1.02 5.98 0 7 C-0.12375 6.360625 -0.2475 5.72125 -0.375 5.0625 C-0.684375 4.0415625 -0.684375 4.0415625 -1 3 C-1.66 2.67 -2.32 2.34 -3 2 C-2.01 1.34 -1.02 0.68 0 0 Z " fill="#F18C4B" transform="translate(268,241)"/>
<path d="M0 0 C0.433125 0.9590625 0.433125 0.9590625 0.875 1.9375 C1.82823451 4.15206079 1.82823451 4.15206079 4 5 C2.35 5.33 0.7 5.66 -1 6 C-0.67 5.01 -0.34 4.02 0 3 C-0.99 2.67 -1.98 2.34 -3 2 C-2.01 1.34 -1.02 0.68 0 0 Z " fill="#F5964E" transform="translate(163,158)"/>
<path d="M0 0 C0.99 0 1.98 0 3 0 C3.33 0.99 3.66 1.98 4 3 C2.68 4.32 1.36 5.64 0 7 C0 4.69 0 2.38 0 0 Z " fill="#E79359" transform="translate(158,133)"/>
<path d="M0 0 C0.66 0.33 1.32 0.66 2 1 C1.505 1.4125 1.01 1.825 0.5 2.25 C-1.43386092 4.12202338 -1.43386092 4.12202338 -1 8 C-1.99 8 -2.98 8 -4 8 C-4.33 7.01 -4.66 6.02 -5 5 C-3.35 3.35 -1.7 1.7 0 0 Z " fill="#EB8A4B" transform="translate(93,53)"/>
<path d="M0 0 C1.32 0 2.64 0 4 0 C3.67 1.32 3.34 2.64 3 4 C1.02 4 -0.96 4 -3 4 C-2.34 3.67 -1.68 3.34 -1 3 C-0.67 2.01 -0.34 1.02 0 0 Z " fill="#FFA52B" transform="translate(219,136)"/>
<path d="M0 0 C1.65 0 3.3 0 5 0 C5 2.31 5 4.62 5 7 C4.34 7 3.68 7 3 7 C2.87625 6.030625 2.7525 5.06125 2.625 4.0625 C2.41875 3.051875 2.2125 2.04125 2 1 C1.34 0.67 0.68 0.34 0 0 Z " fill="#EC8E52" transform="translate(201,218)"/>
<path d="M0 0 C0.66 0.33 1.32 0.66 2 1 C2 1.99 2 2.98 2 4 C0.02 4.33 -1.96 4.66 -4 5 C-2.68 3.35 -1.36 1.7 0 0 Z " fill="#EC8C51" transform="translate(99,48)"/>
<path d="" fill="#FF8080" transform="translate(0,0)"/>
<path d="" fill="#FFFF00" transform="translate(0,0)"/>
<path d="" fill="#FFFFFF" transform="translate(0,0)"/>
<path d="" fill="#FFFFFF" transform="translate(0,0)"/>
<path d="" fill="#FFFFFF" transform="translate(0,0)"/>
<path d="" fill="#FFFFFF" transform="translate(0,0)"/>
<path d="" fill="#FFFFFF" transform="translate(0,0)"/>
<path d="" fill="#FFFFFF" transform="translate(0,0)"/>
<path d="" fill="#FFFFFF" transform="translate(0,0)"/>
<path d="" fill="#FFFFFF" transform="translate(0,0)"/>
<path d="" fill="#FFFFFF" transform="translate(0,0)"/>
<path d="" fill="#FFFFFF" transform="translate(0,0)"/>
<path d="" fill="#FFFFFF" transform="translate(0,0)"/>
<path d="" fill="#FFFFFF" transform="translate(0,0)"/>
<path d="" fill="#FFFFFF" transform="translate(0,0)"/>
<path d="" fill="#FFFFFF" transform="translate(0,0)"/>
<path d="" fill="#FFFFFF" transform="translate(0,0)"/>
<path d="" fill="#FFFFFF" transform="translate(0,0)"/>
<path d="" fill="#FFFFFF" transform="translate(0,0)"/>
<path d="" fill="#FFFFFF" transform="translate(0,0)"/>
<path d="" fill="#FFFFFF" transform="translate(0,0)"/>
<path d="" fill="#FFFFFF" transform="translate(0,0)"/>
<path d="" fill="#FFFFFF" transform="translate(0,0)"/>
<path d="" fill="#FFFFFF" transform="translate(0,0)"/>
<path d="" fill="#FFFFFF" transform="translate(0,0)"/>
<path d="" fill="#FFFFFF" transform="translate(0,0)"/>
<path d="" fill="#FFFF00" transform="translate(0,0)"/>
<path d="" fill="#FF8080" transform="translate(0,0)"/>
<path d="" fill="#FFFFFF" transform="translate(0,0)"/>
<path d="" fill="#FFFFFF" transform="translate(0,0)"/>
<path d="" fill="#FFFFFF" transform="translate(0,0)"/>
<path d="" fill="#FFFFFF" transform="translate(0,0)"/>
<path d="" fill="#FFFFFF" transform="translate(0,0)"/>
<path d="" fill="#FFFFFF" transform="translate(0,0)"/>
<path d="" fill="#FFFFFF" transform="translate(0,0)"/>
<path d="" fill="#FFFFFF" transform="translate(0,0)"/>
<path d="" fill="#FFFF00" transform="translate(0,0)"/>
<path d="" fill="#FF8080" transform="translate(0,0)"/>
<path d="" fill="#FFFFFF" transform="translate(0,0)"/>
<path d="" fill="#FFFFFF" transform="translate(0,0)"/>
<path d="" fill="#FFFFFF" transform="translate(0,0)"/>
<path d="" fill="#FFFFFF" transform="translate(0,0)"/>
<path d="" fill="#FF8080" transform="translate(0,0)"/>
<path d="" fill="#FFFFFF" transform="translate(0,0)"/>
<path d="" fill="#FFFFFF" transform="translate(0,0)"/>
<path d="" fill="#FFFFFF" transform="translate(0,0)"/>
<path d="" fill="#FFFFFF" transform="translate(0,0)"/>
<path d="" fill="#FFFFFF" transform="translate(0,0)"/>
<path d="" fill="#FFFFFF" transform="translate(0,0)"/>
<path d="" fill="#FFFFFF" transform="translate(0,0)"/>
<path d="" fill="#FFFFFF" transform="translate(0,0)"/>
<path d="" fill="#FFFFFF" transform="translate(0,0)"/>
<path d="" fill="#FFFFFF" transform="translate(0,0)"/>
<path d="" fill="#FFFFFF" transform="translate(0,0)"/>
<path d="" fill="#FFFFFF" transform="translate(0,0)"/>
<path d="" fill="#FFFFFF" transform="translate(0,0)"/>
<path d="" fill="#FFFFFF" transform="translate(0,0)"/>
<path d="" fill="#FFFFFF" transform="translate(0,0)"/>
<path d="" fill="#FFFFFF" transform="translate(0,0)"/>
</svg>
